<svg width="121" height="168" viewBox="0 0 121 168" fill="none" xmlns="http://www.w3.org/2000/svg">
<path d="M101.376 164.127C109.419 165.48 123.876 163.316 117.358 143.84L111.091 55.5101C108.479 55.198 103.006 55.2604 102.003 58.0071C99.0782 56.3425 93.2286 53.5126 93.2286 55.5101V157.261C94.0642 160.07 93.2286 165.75 83.2007 166L6.7378 159.446C4.43974 159.862 0.40768 158.135 2.66396 147.897L5.17091 60.8162C4.96199 57.7991 7.55254 52.1394 19.586 53.6375C26.4802 54.4698 40.2686 57.0708 40.2686 60.8162C40.8954 64.3535 40.77 71.4282 35.2547 71.4282C33.1655 72.1565 28.7365 71.4282 27.7337 62.6889V17.4318C29.3006 11.7096 34.6906 0.639833 43.7157 2.138C48.6252 2.03396 58.6322 2.138 59.3843 3.38647C62.4136 5.25918 68.2214 10.69 67.2186 17.4318L67.8454 65.1858C69.4122 68.8272 73.7995 74.2997 78.8134 67.0586C79.858 64.3535 80.3803 58.2567 74.1128 55.5101L49.043 54.5738" stroke="#FCA311" stroke-width="3"/>
<g clip-path="url(#clip0)">
<path d="M31.8574 139.637H46.2847V145.808H40.3214C38.1093 145.872 33.3194 144.728 31.8574 139.637Z" fill="#FCA311"/>
<path d="M29.6453 134.72H46.2847V129.224H29.6453V134.72Z" fill="#FCA311"/>
<path fill-rule="evenodd" clip-rule="evenodd" d="M31.0881 123.344H51.5748L56.0954 118.716C56.2877 120.258 57.4611 123.344 60.6159 123.344H69.8494V114.377C69.1441 112.835 67.0986 109.788 64.5594 109.942C62.0202 110.096 64.8479 109.364 66.5792 108.978H69.8494V106.953H63.4052C62.0266 107.693 59.0577 109.692 58.2114 111.774H55.6144V85.4536C53.8191 82.4327 48.7855 77.837 42.5337 79.5724C41.3305 79.9064 37.5323 80.498 34.8392 84.2002C34.0697 88.7316 33.3964 89.3101 34.8392 95.5769V97.6015C33.3003 97.4087 29.7992 98.0836 28.1064 102.326V107.918C28.7797 109.203 30.8188 111.774 33.5888 111.774H41.9566C42.8543 113.22 43.9957 116.44 41.3795 117.752V118.716H34.8392C33.5888 119.487 31.0881 121.493 31.0881 123.344ZM59.5579 114.956C58.6923 117.366 58.7692 121.974 66.0021 121.126C66.5151 117.398 65.9444 110.945 59.5579 114.956ZM50.3244 110.617H34.8392C32.3769 110.617 30.1583 108.368 29.9339 107.146V102.326C31.0881 99.3176 35.6727 98.7263 37.2437 99.0477C40.7832 99.2791 47.439 106.857 50.3244 110.617ZM53.9794 87.5746V107.918H51.5748C45.65 103.984 36.1857 94.3235 35.9934 91.5275L35.801 88.9244L35.9934 86.3213C38.2055 81.5007 40.8025 82.0792 42.5337 81.5007C47.9846 79.6793 52.5687 84.2323 53.9794 87.5746Z" fill="#FCA311"/>
<path d="M60.6159 123.344C57.4611 123.344 56.2877 120.258 56.0954 118.716L51.5748 123.344H31.0881C31.0881 121.493 33.5888 119.487 34.8392 118.716H41.3795V117.752C43.9957 116.44 42.8543 113.22 41.9566 111.774H33.5888C30.8188 111.774 28.7797 109.203 28.1064 107.918V102.326C29.7992 98.0836 33.3003 97.4087 34.8392 97.6015V95.5769C33.3964 89.3101 34.0697 88.7316 34.8392 84.2002C37.5323 80.498 41.3305 79.9064 42.5337 79.5724C48.7855 77.837 53.8191 82.4327 55.6144 85.4536V111.774H58.2114C59.0577 109.692 62.0266 107.693 63.4052 106.953H69.8494V108.978H66.5792C64.8479 109.364 62.0202 110.096 64.5594 109.942C67.0986 109.788 69.1441 112.835 69.8494 114.377V123.344H60.6159ZM60.6159 123.344C63.7707 123.344 68.086 123.344 69.8494 123.344H60.6159ZM60.6159 123.344H69.8494H60.6159ZM31.8575 139.637H46.2848V145.808H40.3215C38.1094 145.872 33.3195 144.728 31.8575 139.637ZM29.6454 134.72H46.2848V129.225H29.6454V134.72ZM59.5579 114.956C58.6923 117.366 58.7692 121.974 66.0021 121.126C66.5151 117.398 65.9444 110.945 59.5579 114.956ZM34.8392 110.617H50.3244C47.439 106.857 40.7832 99.2791 37.2437 99.0477C35.6727 98.7263 31.0881 99.3176 29.9339 102.326V107.146C30.1583 108.368 32.3769 110.617 34.8392 110.617ZM53.9794 107.918V87.5746C52.5687 84.2323 47.9846 79.6793 42.5337 81.5007C40.8025 82.0792 38.2055 81.5007 35.9934 86.3213L35.801 88.9244L35.9934 91.5275C36.1857 94.3235 45.65 103.984 51.5748 107.918H53.9794Z" stroke="#FCA311"/>
</g>
<defs>
<clipPath id="clip0">
<rect width="42.6186" height="67.4175" fill="white" transform="translate(27.6965 78.781)"/>
</clipPath>
</defs>
</svg>
