<svg width="44" height="69" viewBox="0 0 44 69" fill="none" xmlns="http://www.w3.org/2000/svg">
<g clip-path="url(#clip0)">
<path d="M4.85742 61.6372H19.2847V67.8075H13.3214C11.1093 67.8717 6.31936 66.7276 4.85742 61.6372Z" fill="#FCA311"/>
<path d="M2.64526 56.7198H19.2847V51.2245H2.64526V56.7198Z" fill="#FCA311"/>
<path fill-rule="evenodd" clip-rule="evenodd" d="M4.08808 45.3436H24.5748L29.0954 40.7157C29.2877 42.2584 30.4611 45.3436 33.6159 45.3436H42.8494V36.3772C42.1441 34.8346 40.0986 31.788 37.5594 31.9422C35.0201 32.0965 37.8479 31.3637 39.5792 30.9781H42.8494V28.9534H36.4052C35.0266 29.6926 32.0577 31.6916 31.2114 33.7741H28.6144V7.45358C26.8191 4.43266 21.7855 -0.162974 15.5337 1.57244C14.3305 1.90644 10.5323 2.498 7.83917 6.20023C7.06974 10.7316 6.39644 11.3101 7.83917 17.5769V19.6015C6.30026 19.4087 2.79925 20.0836 1.10645 24.3257V29.9176C1.77972 31.2031 3.81877 33.7741 6.5888 33.7741H14.9566C15.8543 35.2202 16.9957 38.4404 14.3795 39.7516V40.7157H7.83917C6.5888 41.487 4.08808 43.4925 4.08808 45.3436ZM32.5579 36.9556C31.6923 39.3659 31.7692 43.9743 39.0021 43.1258C39.5151 39.3981 38.9444 32.9449 32.5579 36.9556ZM23.3244 32.6171H7.83917C5.37692 32.6171 3.15832 30.3675 2.9339 29.1463V24.3257C4.08808 21.3176 8.67273 20.7263 10.2437 21.0477C13.7832 21.2791 20.439 28.857 23.3244 32.6171ZM26.9794 9.57464V29.9176H24.5748C18.65 25.984 9.18571 16.3235 8.99335 13.5275L8.801 10.9244L8.99335 8.32129C11.2055 3.50068 13.8025 4.07916 15.5337 3.50068C20.9846 1.67934 25.5687 6.23234 26.9794 9.57464Z" fill="#FCA311"/>
<path d="M33.6159 45.3436C30.4611 45.3436 29.2877 42.2584 29.0954 40.7157L24.5748 45.3436H4.08808C4.08808 43.4925 6.5888 41.487 7.83917 40.7157H14.3795V39.7516C16.9957 38.4404 15.8543 35.2202 14.9566 33.7741H6.5888C3.81877 33.7741 1.77972 31.2031 1.10645 29.9176V24.3257C2.79925 20.0836 6.30026 19.4087 7.83917 19.6015V17.5769C6.39644 11.3101 7.06974 10.7316 7.83917 6.20023C10.5323 2.498 14.3305 1.90644 15.5337 1.57244C21.7855 -0.162974 26.8191 4.43266 28.6144 7.45358V33.7741H31.2114C32.0577 31.6916 35.0266 29.6926 36.4052 28.9534H42.8494V30.9781H39.5792C37.8479 31.3637 35.0202 32.0965 37.5594 31.9422C40.0986 31.788 42.1441 34.8346 42.8494 36.3772V45.3436H33.6159ZM33.6159 45.3436C36.7707 45.3436 41.086 45.3436 42.8494 45.3436H33.6159ZM33.6159 45.3436H42.8494H33.6159ZM4.85754 61.6373H19.2848V67.8076H13.3215C11.1094 67.8718 6.31948 66.7277 4.85754 61.6373ZM2.64536 56.7199H19.2848V51.2246H2.64536V56.7199ZM32.5579 36.9556C31.6923 39.3659 31.7692 43.9743 39.0021 43.1258C39.5151 39.3981 38.9444 32.9449 32.5579 36.9556ZM7.83917 32.6171H23.3244C20.439 28.857 13.7832 21.2791 10.2437 21.0477C8.67273 20.7263 4.08808 21.3176 2.9339 24.3257V29.1463C3.15832 30.3675 5.37692 32.6171 7.83917 32.6171ZM26.9794 29.9176V9.57464C25.5687 6.23234 20.9846 1.67934 15.5337 3.50068C13.8025 4.07916 11.2055 3.50068 8.99335 8.32129L8.801 10.9244L8.99335 13.5275C9.18571 16.3235 18.65 25.984 24.5748 29.9176H26.9794Z" stroke="#FCA311"/>
</g>
<defs>
<clipPath id="clip0">
<rect width="42.6186" height="67.4175" fill="white" transform="translate(0.696533 0.781006)"/>
</clipPath>
</defs>
</svg>
