<?xml version="1.0" standalone="no"?>
<!DOCTYPE svg PUBLIC "-//W3C//DTD SVG 20010904//EN"
 "http://www.w3.org/TR/2001/REC-SVG-20010904/DTD/svg10.dtd">
<svg version="1.0" xmlns="http://www.w3.org/2000/svg"
 width="700.000000pt" height="700.000000pt" viewBox="0 0 700.000000 700.000000"
 preserveAspectRatio="xMidYMid meet">
<metadata>
Created by potrace 1.14, written by Peter Selinger 2001-2017
</metadata>
<g transform="translate(0.000000,700.000000) scale(0.100000,-0.100000)"
fill="#000000" stroke="none">
<path d="M3057 6964 c-1 -1 -33 -5 -71 -9 -70 -6 -249 -49 -366 -87 -222 -72
-422 -207 -562 -379 -35 -43 -41 -60 -54 -144 -3 -22 -7 -42 -9 -45 -2 -3 -6
-25 -10 -50 -4 -25 -8 -47 -10 -50 -2 -3 -6 -26 -10 -50 -4 -25 -13 -83 -20
-130 -12 -81 -13 -327 -1 -367 3 -10 7 -36 10 -58 3 -22 10 -65 16 -95 6 -30
13 -66 15 -80 3 -14 7 -36 10 -50 21 -94 25 -140 23 -221 l-3 -93 -63 -2
c-247 -11 -469 -169 -596 -421 l-36 -73 0 -290 c0 -325 -3 -308 75 -410 108
-141 236 -234 379 -275 49 -15 120 -17 523 -18 l465 -2 22 -40 c125 -222 103
-451 -51 -547 -30 -18 -33 -24 -33 -69 l0 -49 -338 0 -339 0 -54 -38 c-113
-79 -215 -178 -270 -262 -55 -84 -84 -183 -56 -192 6 -2 488 -3 1069 -3 l1056
1 67 70 c129 134 388 394 390 392 2 -2 12 -35 24 -74 55 -187 179 -325 330
-370 49 -15 122 -17 561 -18 278 -1 511 0 518 2 9 3 12 106 12 471 l0 466 -26
50 c-72 137 -189 273 -292 342 -80 53 -148 73 -244 73 -47 0 -78 4 -72 9 8 8
148 48 203 58 13 2 29 7 35 11 6 4 88 8 181 9 94 1 180 2 193 2 21 1 22 4 22
111 0 107 -1 110 -22 111 -13 0 -167 1 -343 1 l-321 0 -74 -48 c-64 -40 -147
-99 -198 -139 -7 -5 -43 -39 -80 -75 -78 -74 -129 -136 -162 -197 l-24 -43
-128 0 -128 0 0 1366 0 1366 -52 76 c-66 95 -218 251 -319 325 -210 154 -448
242 -677 250 -45 2 -84 2 -85 1z m243 -240 c269 -77 543 -312 678 -579 l30
-60 0 -1052 0 -1053 -121 1 -120 0 -81 57 c-525 369 -1259 1110 -1478 1492
-61 107 -83 303 -64 575 7 87 13 120 33 160 77 152 196 290 295 342 73 38 108
49 223 74 55 11 130 30 168 40 131 38 311 39 437 3z m-952 -1849 c125 -36 298
-149 497 -325 93 -82 360 -355 469 -480 144 -164 152 -173 196 -230 19 -25 37
-47 40 -50 3 -3 20 -24 39 -47 l33 -43 -849 3 -848 2 -70 31 c-128 55 -243
150 -300 249 l-29 49 -1 261 c-1 254 0 261 23 307 49 98 187 197 345 248 148
48 339 58 455 25z m2719 -1534 c98 -49 163 -162 190 -330 10 -61 10 -387 0
-397 -15 -15 -268 -13 -342 2 -236 49 -359 199 -351 427 4 85 21 172 39 195
24 30 208 111 287 126 49 9 137 -2 177 -23z"/>
<path d="M1482 1478 l3 -293 868 0 c819 0 867 1 868 17 0 10 1 141 1 291 l1
272 -872 3 -871 2 2 -292z"/>
<path d="M1710 679 c0 -18 62 -162 93 -214 30 -50 114 -159 142 -183 149 -127
311 -204 500 -238 69 -12 775 -12 776 0 1 16 1 553 0 604 l-1 42 -755 0 c-529
0 -755 -3 -755 -11z"/>
</g>
</svg>
