<svg width="586" height="310" viewBox="0 0 586 310" fill="none" xmlns="http://www.w3.org/2000/svg">
<path d="M205.849 304.506C222.348 307.029 252.003 302.992 238.632 266.652L225.776 101.842C220.419 101.26 209.191 101.376 207.134 106.501C201.135 103.395 189.136 98.115 189.136 101.842V291.694C190.85 296.935 189.136 307.534 168.565 308L11.7186 295.77C7.00459 296.547 -1.2663 293.324 3.36197 274.223L8.50442 111.742C8.07588 106.113 13.3898 95.5527 38.0739 98.348C52.2159 99.901 80.4997 104.754 80.4997 111.742C81.7853 118.343 81.5282 131.543 70.2147 131.543C65.9292 132.902 56.8441 131.543 54.7871 115.237V30.7935C58.0012 20.1167 69.0576 -0.537872 87.5707 2.25749C97.6415 2.06337 118.169 2.25749 119.711 4.58695C125.925 8.08115 137.839 18.2143 135.782 30.7935L137.067 119.896C140.282 126.69 149.281 136.901 159.566 123.39C161.709 118.343 162.78 106.967 149.924 101.842L98.4985 100.095" stroke="#333533" stroke-width="3"/>
<path d="M65.4922 264.569H94.9434V277.2H82.7702C78.2544 277.331 68.4765 274.989 65.4922 264.569Z" fill="#333533"/>
<path d="M60.9795 254.504H94.9466V243.255H60.9795V254.504Z" fill="#333533"/>
<path fill-rule="evenodd" clip-rule="evenodd" d="M63.9225 231.217H105.743L114.971 221.744C115.364 224.902 117.759 231.217 124.199 231.217H143.048V212.863C141.609 209.706 137.433 203.469 132.249 203.785C127.066 204.101 132.838 202.601 136.373 201.812H143.048V197.667H129.893C127.079 199.18 121.019 203.272 119.291 207.535H113.99V153.658C110.325 147.475 100.049 138.068 87.2872 141.62C84.831 142.304 77.0774 143.514 71.5798 151.093C70.0092 160.368 68.6347 161.552 71.5798 174.38V178.524C68.4384 178.13 61.2916 179.511 57.8359 188.195V199.641C59.2103 202.272 63.3728 207.535 69.0274 207.535H86.1092C87.9417 210.495 90.2716 217.087 84.9311 219.771V221.744H71.5798C69.0274 223.323 63.9225 227.428 63.9225 231.217ZM122.04 214.047C120.273 218.981 120.43 228.414 135.195 226.677C136.242 219.047 135.077 205.838 122.04 214.047ZM103.191 205.167H71.5798C66.5535 205.167 62.0246 200.562 61.5664 198.062V188.195C63.9225 182.037 73.2815 180.827 76.4884 181.485C83.7138 181.958 97.3006 197.47 103.191 205.167ZM110.652 158V199.641H105.743C93.6487 191.589 74.3286 171.814 73.936 166.091L73.5433 160.763L73.936 155.434C78.4518 145.567 83.7531 146.751 87.2872 145.567C98.4145 141.839 107.772 151.158 110.652 158Z" fill="#333533"/>
<path d="M124.199 231.217C117.759 231.217 115.364 224.902 114.971 221.744L105.743 231.217H63.9225C63.9225 227.428 69.0274 223.323 71.5798 221.744H84.9311V219.771C90.2716 217.087 87.9417 210.495 86.1092 207.535H69.0274C63.3728 207.535 59.2103 202.272 57.8359 199.641V188.195C61.2916 179.511 68.4384 178.13 71.5798 178.524V174.38C68.6347 161.552 70.0092 160.368 71.5798 151.093C77.0774 143.514 84.831 142.304 87.2872 141.62C100.049 138.068 110.325 147.475 113.99 153.658V207.535H119.291C121.019 203.272 127.079 199.18 129.893 197.667H143.048V201.812H136.373C132.838 202.601 127.066 204.101 132.249 203.785C137.433 203.469 141.609 209.706 143.048 212.863V231.217H124.199ZM124.199 231.217C130.639 231.217 139.449 231.217 143.048 231.217H124.199ZM124.199 231.217H143.048H124.199ZM65.4933 264.569H94.9445V277.2H82.7713C78.2555 277.331 68.4776 274.989 65.4933 264.569ZM60.9774 254.504H94.9445V243.255H60.9774V254.504ZM122.04 214.047C120.273 218.981 120.43 228.414 135.195 226.677C136.242 219.047 135.077 205.838 122.04 214.047ZM71.5798 205.167H103.191C97.3006 197.47 83.7138 181.958 76.4884 181.485C73.2815 180.827 63.9225 182.037 61.5664 188.195V198.062C62.0246 200.562 66.5535 205.167 71.5798 205.167ZM110.652 199.641V158C107.772 151.158 98.4145 141.839 87.2872 145.567C83.7531 146.751 78.4518 145.567 73.936 155.434L73.5433 160.763L73.936 166.091C74.3286 171.814 93.6487 191.589 105.743 199.641H110.652Z" stroke="#333533"/>
<path d="M349.859 162.46C356.886 164.047 362.439 167.56 366.519 173C370.712 178.327 372.809 184.447 372.809 191.36C372.809 201.56 369.296 209.55 362.269 215.33C355.242 221.11 345.382 224 332.689 224H273.359V104.15H330.819C343.059 104.15 352.636 106.87 359.549 112.31C366.576 117.75 370.089 125.4 370.089 135.26C370.089 142.287 368.219 148.18 364.479 152.94C360.852 157.587 355.979 160.76 349.859 162.46ZM306.679 151.75H323.509C331.896 151.75 336.089 148.293 336.089 141.38C336.089 134.24 331.896 130.67 323.509 130.67H306.679V151.75ZM326.059 197.14C334.446 197.14 338.639 193.627 338.639 186.6C338.639 182.973 337.506 180.197 335.239 178.27C333.086 176.343 329.969 175.38 325.889 175.38H306.679V197.14H326.059ZM420.732 130.84V150.39H458.982V175.72H420.732V197.31H464.082V224H387.412V104.15H464.082V130.84H420.732ZM513.866 130.84V150.39H552.116V175.72H513.866V197.31H557.216V224H480.546V104.15H557.216V130.84H513.866Z" fill="#333533"/>
<path d="M287.61 251.2C288.83 251.46 289.81 252.07 290.55 253.03C291.29 253.97 291.66 255.05 291.66 256.27C291.66 258.03 291.04 259.43 289.8 260.47C288.58 261.49 286.87 262 284.67 262H274.86V240.94H284.34C286.48 240.94 288.15 241.43 289.35 242.41C290.57 243.39 291.18 244.72 291.18 246.4C291.18 247.64 290.85 248.67 290.19 249.49C289.55 250.31 288.69 250.88 287.61 251.2ZM279.99 249.46H283.35C284.19 249.46 284.83 249.28 285.27 248.92C285.73 248.54 285.96 247.99 285.96 247.27C285.96 246.55 285.73 246 285.27 245.62C284.83 245.24 284.19 245.05 283.35 245.05H279.99V249.46ZM283.77 257.86C284.63 257.86 285.29 257.67 285.75 257.29C286.23 256.89 286.47 256.32 286.47 255.58C286.47 254.84 286.22 254.26 285.72 253.84C285.24 253.42 284.57 253.21 283.71 253.21H279.99V257.86H283.77ZM309.365 245.62V262H307.265V259.12C306.785 260.14 306.045 260.92 305.045 261.46C304.045 262 302.925 262.27 301.685 262.27C299.725 262.27 298.125 261.67 296.885 260.47C295.645 259.25 295.025 257.49 295.025 255.19V245.62H297.095V254.95C297.095 256.73 297.535 258.09 298.415 259.03C299.315 259.97 300.535 260.44 302.075 260.44C303.655 260.44 304.915 259.94 305.855 258.94C306.795 257.94 307.265 256.47 307.265 254.53V245.62H309.365ZM319.8 262.24C317.92 262.24 316.38 261.81 315.18 260.95C314 260.07 313.34 258.88 313.2 257.38H315.36C315.46 258.3 315.89 259.05 316.65 259.63C317.43 260.19 318.47 260.47 319.77 260.47C320.91 260.47 321.8 260.2 322.44 259.66C323.1 259.12 323.43 258.45 323.43 257.65C323.43 257.09 323.25 256.63 322.89 256.27C322.53 255.91 322.07 255.63 321.51 255.43C320.97 255.21 320.23 254.98 319.29 254.74C318.07 254.42 317.08 254.1 316.32 253.78C315.56 253.46 314.91 252.99 314.37 252.37C313.85 251.73 313.59 250.88 313.59 249.82C313.59 249.02 313.83 248.28 314.31 247.6C314.79 246.92 315.47 246.38 316.35 245.98C317.23 245.58 318.23 245.38 319.35 245.38C321.11 245.38 322.53 245.83 323.61 246.73C324.69 247.61 325.27 248.83 325.35 250.39H323.25C323.19 249.43 322.81 248.66 322.11 248.08C321.43 247.48 320.49 247.18 319.29 247.18C318.23 247.18 317.37 247.43 316.71 247.93C316.05 248.43 315.72 249.05 315.72 249.79C315.72 250.43 315.91 250.96 316.29 251.38C316.69 251.78 317.18 252.1 317.76 252.34C318.34 252.56 319.12 252.81 320.1 253.09C321.28 253.41 322.22 253.72 322.92 254.02C323.62 254.32 324.22 254.76 324.72 255.34C325.22 255.92 325.48 256.69 325.5 257.65C325.5 258.53 325.26 259.32 324.78 260.02C324.3 260.7 323.63 261.24 322.77 261.64C321.91 262.04 320.92 262.24 319.8 262.24ZM330.503 242.53C330.083 242.53 329.723 242.38 329.423 242.08C329.123 241.78 328.973 241.41 328.973 240.97C328.973 240.53 329.123 240.17 329.423 239.89C329.723 239.59 330.083 239.44 330.503 239.44C330.923 239.44 331.283 239.59 331.583 239.89C331.883 240.17 332.033 240.53 332.033 240.97C332.033 241.41 331.883 241.78 331.583 242.08C331.283 242.38 330.923 242.53 330.503 242.53ZM331.553 245.62V262H329.453V245.62H331.553ZM343.988 245.32C345.948 245.32 347.548 245.93 348.788 247.15C350.028 248.35 350.648 250.1 350.648 252.4V262H348.578V252.64C348.578 250.86 348.128 249.5 347.228 248.56C346.348 247.62 345.138 247.15 343.598 247.15C342.018 247.15 340.758 247.65 339.818 248.65C338.878 249.65 338.408 251.12 338.408 253.06V262H336.308V245.62H338.408V248.41C338.928 247.41 339.678 246.65 340.658 246.13C341.638 245.59 342.748 245.32 343.988 245.32ZM370.113 252.97C370.113 253.69 370.093 254.24 370.053 254.62H356.463C356.523 255.86 356.823 256.92 357.363 257.8C357.903 258.68 358.613 259.35 359.493 259.81C360.373 260.25 361.333 260.47 362.373 260.47C363.733 260.47 364.873 260.14 365.793 259.48C366.733 258.82 367.353 257.93 367.653 256.81H369.873C369.473 258.41 368.613 259.72 367.293 260.74C365.993 261.74 364.353 262.24 362.373 262.24C360.833 262.24 359.453 261.9 358.233 261.22C357.013 260.52 356.053 259.54 355.353 258.28C354.673 257 354.333 255.51 354.333 253.81C354.333 252.11 354.673 250.62 355.353 249.34C356.033 248.06 356.983 247.08 358.203 246.4C359.423 245.72 360.813 245.38 362.373 245.38C363.933 245.38 365.293 245.72 366.453 246.4C367.633 247.08 368.533 248 369.153 249.16C369.793 250.3 370.113 251.57 370.113 252.97ZM367.983 252.91C368.003 251.69 367.753 250.65 367.233 249.79C366.733 248.93 366.043 248.28 365.163 247.84C364.283 247.4 363.323 247.18 362.283 247.18C360.723 247.18 359.393 247.68 358.293 248.68C357.193 249.68 356.583 251.09 356.463 252.91H367.983ZM379.595 262.24C377.715 262.24 376.175 261.81 374.975 260.95C373.795 260.07 373.135 258.88 372.995 257.38H375.155C375.255 258.3 375.685 259.05 376.445 259.63C377.225 260.19 378.265 260.47 379.565 260.47C380.705 260.47 381.595 260.2 382.235 259.66C382.895 259.12 383.225 258.45 383.225 257.65C383.225 257.09 383.045 256.63 382.685 256.27C382.325 255.91 381.865 255.63 381.305 255.43C380.765 255.21 380.025 254.98 379.085 254.74C377.865 254.42 376.875 254.1 376.115 253.78C375.355 253.46 374.705 252.99 374.165 252.37C373.645 251.73 373.385 250.88 373.385 249.82C373.385 249.02 373.625 248.28 374.105 247.6C374.585 246.92 375.265 246.38 376.145 245.98C377.025 245.58 378.025 245.38 379.145 245.38C380.905 245.38 382.325 245.83 383.405 246.73C384.485 247.61 385.065 248.83 385.145 250.39H383.045C382.985 249.43 382.605 248.66 381.905 248.08C381.225 247.48 380.285 247.18 379.085 247.18C378.025 247.18 377.165 247.43 376.505 247.93C375.845 248.43 375.515 249.05 375.515 249.79C375.515 250.43 375.705 250.96 376.085 251.38C376.485 251.78 376.975 252.1 377.555 252.34C378.135 252.56 378.915 252.81 379.895 253.09C381.075 253.41 382.015 253.72 382.715 254.02C383.415 254.32 384.015 254.76 384.515 255.34C385.015 255.92 385.275 256.69 385.295 257.65C385.295 258.53 385.055 259.32 384.575 260.02C384.095 260.7 383.425 261.24 382.565 261.64C381.705 262.04 380.715 262.24 379.595 262.24ZM394.888 262.24C393.008 262.24 391.468 261.81 390.268 260.95C389.088 260.07 388.428 258.88 388.288 257.38H390.448C390.548 258.3 390.978 259.05 391.738 259.63C392.518 260.19 393.558 260.47 394.858 260.47C395.998 260.47 396.888 260.2 397.528 259.66C398.188 259.12 398.518 258.45 398.518 257.65C398.518 257.09 398.338 256.63 397.978 256.27C397.618 255.91 397.158 255.63 396.598 255.43C396.058 255.21 395.318 254.98 394.378 254.74C393.158 254.42 392.168 254.1 391.408 253.78C390.648 253.46 389.998 252.99 389.458 252.37C388.938 251.73 388.678 250.88 388.678 249.82C388.678 249.02 388.918 248.28 389.398 247.6C389.878 246.92 390.558 246.38 391.438 245.98C392.318 245.58 393.318 245.38 394.438 245.38C396.198 245.38 397.618 245.83 398.698 246.73C399.778 247.61 400.358 248.83 400.438 250.39H398.338C398.278 249.43 397.898 248.66 397.198 248.08C396.518 247.48 395.578 247.18 394.378 247.18C393.318 247.18 392.458 247.43 391.798 247.93C391.138 248.43 390.808 249.05 390.808 249.79C390.808 250.43 390.998 250.96 391.378 251.38C391.778 251.78 392.268 252.1 392.848 252.34C393.428 252.56 394.208 252.81 395.188 253.09C396.368 253.41 397.308 253.72 398.008 254.02C398.708 254.32 399.308 254.76 399.808 255.34C400.308 255.92 400.568 256.69 400.588 257.65C400.588 258.53 400.348 259.32 399.868 260.02C399.388 260.7 398.718 261.24 397.858 261.64C396.998 262.04 396.008 262.24 394.888 262.24ZM417.363 245.05V249.31H424.233V253.27H417.363V257.89H425.133V262H412.233V240.94H425.133V245.05H417.363ZM436.684 245.32C438.644 245.32 440.244 245.93 441.484 247.15C442.724 248.35 443.344 250.1 443.344 252.4V262H441.274V252.64C441.274 250.86 440.824 249.5 439.924 248.56C439.044 247.62 437.834 247.15 436.294 247.15C434.714 247.15 433.454 247.65 432.514 248.65C431.574 249.65 431.104 251.12 431.104 253.06V262H429.004V245.62H431.104V248.41C431.624 247.41 432.374 246.65 433.354 246.13C434.334 245.59 435.444 245.32 436.684 245.32ZM450.718 247.39V257.56C450.718 258.56 450.908 259.25 451.288 259.63C451.668 260.01 452.338 260.2 453.298 260.2H455.218V262H452.968C451.488 262 450.388 261.66 449.668 260.98C448.948 260.28 448.588 259.14 448.588 257.56V247.39H446.308V245.62H448.588V241.51H450.718V245.62H455.218V247.39H450.718ZM473.501 252.97C473.501 253.69 473.481 254.24 473.441 254.62H459.851C459.911 255.86 460.211 256.92 460.751 257.8C461.291 258.68 462.001 259.35 462.881 259.81C463.761 260.25 464.721 260.47 465.761 260.47C467.121 260.47 468.261 260.14 469.181 259.48C470.121 258.82 470.741 257.93 471.041 256.81H473.261C472.861 258.41 472.001 259.72 470.681 260.74C469.381 261.74 467.741 262.24 465.761 262.24C464.221 262.24 462.841 261.9 461.621 261.22C460.401 260.52 459.441 259.54 458.741 258.28C458.061 257 457.721 255.51 457.721 253.81C457.721 252.11 458.061 250.62 458.741 249.34C459.421 248.06 460.371 247.08 461.591 246.4C462.811 245.72 464.201 245.38 465.761 245.38C467.321 245.38 468.681 245.72 469.841 246.4C471.021 247.08 471.921 248 472.541 249.16C473.181 250.3 473.501 251.57 473.501 252.97ZM471.371 252.91C471.391 251.69 471.141 250.65 470.621 249.79C470.121 248.93 469.431 248.28 468.551 247.84C467.671 247.4 466.711 247.18 465.671 247.18C464.111 247.18 462.781 247.68 461.681 248.68C460.581 249.68 459.971 251.09 459.851 252.91H471.371ZM479.443 248.53C479.903 247.51 480.603 246.72 481.543 246.16C482.503 245.6 483.673 245.32 485.053 245.32V247.51H484.483C482.963 247.51 481.743 247.92 480.823 248.74C479.903 249.56 479.443 250.93 479.443 252.85V262H477.343V245.62H479.443V248.53ZM490.283 249.22C490.803 248.12 491.623 247.21 492.743 246.49C493.883 245.75 495.233 245.38 496.793 245.38C498.273 245.38 499.603 245.73 500.783 246.43C501.983 247.11 502.913 248.09 503.573 249.37C504.253 250.63 504.593 252.1 504.593 253.78C504.593 255.46 504.253 256.94 503.573 258.22C502.913 259.5 501.983 260.49 500.783 261.19C499.603 261.89 498.273 262.24 496.793 262.24C495.253 262.24 493.913 261.88 492.773 261.16C491.633 260.42 490.803 259.5 490.283 258.4V269.74H488.213V245.62H490.283V249.22ZM502.463 253.78C502.463 252.42 502.193 251.25 501.652 250.27C501.133 249.27 500.413 248.51 499.493 247.99C498.573 247.47 497.533 247.21 496.373 247.21C495.253 247.21 494.223 247.48 493.283 248.02C492.363 248.56 491.633 249.33 491.093 250.33C490.553 251.33 490.283 252.49 490.283 253.81C490.283 255.13 490.553 256.29 491.093 257.29C491.633 258.29 492.363 259.06 493.283 259.6C494.223 260.14 495.253 260.41 496.373 260.41C497.533 260.41 498.573 260.15 499.493 259.63C500.413 259.09 501.133 258.32 501.652 257.32C502.193 256.3 502.463 255.12 502.463 253.78ZM510.557 248.53C511.017 247.51 511.717 246.72 512.657 246.16C513.617 245.6 514.787 245.32 516.167 245.32V247.51H515.597C514.077 247.51 512.857 247.92 511.937 248.74C511.017 249.56 510.557 250.93 510.557 252.85V262H508.457V245.62H510.557V248.53ZM520.376 242.53C519.956 242.53 519.596 242.38 519.296 242.08C518.996 241.78 518.846 241.41 518.846 240.97C518.846 240.53 518.996 240.17 519.296 239.89C519.596 239.59 519.956 239.44 520.376 239.44C520.796 239.44 521.156 239.59 521.456 239.89C521.756 240.17 521.906 240.53 521.906 240.97C521.906 241.41 521.756 241.78 521.456 242.08C521.156 242.38 520.796 242.53 520.376 242.53ZM521.426 245.62V262H519.326V245.62H521.426ZM531.821 262.24C529.941 262.24 528.401 261.81 527.201 260.95C526.021 260.07 525.361 258.88 525.221 257.38H527.381C527.481 258.3 527.911 259.05 528.671 259.63C529.451 260.19 530.491 260.47 531.791 260.47C532.931 260.47 533.821 260.2 534.461 259.66C535.121 259.12 535.451 258.45 535.451 257.65C535.451 257.09 535.271 256.63 534.911 256.27C534.551 255.91 534.091 255.63 533.531 255.43C532.991 255.21 532.251 254.98 531.311 254.74C530.091 254.42 529.101 254.1 528.341 253.78C527.581 253.46 526.931 252.99 526.391 252.37C525.871 251.73 525.611 250.88 525.611 249.82C525.611 249.02 525.851 248.28 526.331 247.6C526.811 246.92 527.491 246.38 528.371 245.98C529.251 245.58 530.251 245.38 531.371 245.38C533.131 245.38 534.551 245.83 535.631 246.73C536.711 247.61 537.291 248.83 537.371 250.39H535.271C535.211 249.43 534.831 248.66 534.131 248.08C533.451 247.48 532.511 247.18 531.311 247.18C530.251 247.18 529.391 247.43 528.731 247.93C528.071 248.43 527.741 249.05 527.741 249.79C527.741 250.43 527.931 250.96 528.311 251.38C528.711 251.78 529.201 252.1 529.781 252.34C530.361 252.56 531.141 252.81 532.121 253.09C533.301 253.41 534.241 253.72 534.941 254.02C535.641 254.32 536.241 254.76 536.741 255.34C537.241 255.92 537.501 256.69 537.521 257.65C537.521 258.53 537.281 259.32 536.801 260.02C536.321 260.7 535.651 261.24 534.791 261.64C533.931 262.04 532.941 262.24 531.821 262.24ZM556.294 252.97C556.294 253.69 556.274 254.24 556.234 254.62H542.644C542.704 255.86 543.004 256.92 543.544 257.8C544.084 258.68 544.794 259.35 545.674 259.81C546.554 260.25 547.514 260.47 548.554 260.47C549.914 260.47 551.054 260.14 551.974 259.48C552.914 258.82 553.534 257.93 553.834 256.81H556.054C555.654 258.41 554.794 259.72 553.474 260.74C552.174 261.74 550.534 262.24 548.554 262.24C547.014 262.24 545.634 261.9 544.414 261.22C543.194 260.52 542.234 259.54 541.534 258.28C540.854 257 540.514 255.51 540.514 253.81C540.514 252.11 540.854 250.62 541.534 249.34C542.214 248.06 543.164 247.08 544.384 246.4C545.604 245.72 546.994 245.38 548.554 245.38C550.114 245.38 551.474 245.72 552.634 246.4C553.814 247.08 554.714 248 555.334 249.16C555.974 250.3 556.294 251.57 556.294 252.97ZM554.164 252.91C554.184 251.69 553.934 250.65 553.414 249.79C552.914 248.93 552.224 248.28 551.344 247.84C550.464 247.4 549.504 247.18 548.464 247.18C546.904 247.18 545.574 247.68 544.474 248.68C543.374 249.68 542.764 251.09 542.644 252.91H554.164ZM279.99 273.05V277.31H286.86V281.27H279.99V285.89H287.76V290H274.86V268.94H287.76V273.05H279.99ZM301.8 278V279.77H290.13V278H301.8ZM306.227 281.81C306.227 280.11 306.567 278.63 307.247 277.37C307.927 276.09 308.867 275.11 310.067 274.43C311.267 273.73 312.637 273.38 314.177 273.38C316.197 273.38 317.857 273.88 319.157 274.88C320.477 275.88 321.327 277.24 321.707 278.96H319.457C319.177 277.78 318.567 276.86 317.627 276.2C316.707 275.52 315.557 275.18 314.177 275.18C313.077 275.18 312.087 275.43 311.207 275.93C310.327 276.43 309.627 277.18 309.107 278.18C308.607 279.16 308.357 280.37 308.357 281.81C308.357 283.25 308.607 284.47 309.107 285.47C309.627 286.47 310.327 287.22 311.207 287.72C312.087 288.22 313.077 288.47 314.177 288.47C315.557 288.47 316.707 288.14 317.627 287.48C318.567 286.8 319.177 285.86 319.457 284.66H321.707C321.327 286.34 320.477 287.69 319.157 288.71C317.837 289.73 316.177 290.24 314.177 290.24C312.637 290.24 311.267 289.9 310.067 289.22C308.867 288.52 307.927 287.54 307.247 286.28C306.567 285 306.227 283.51 306.227 281.81ZM332.756 290.24C331.216 290.24 329.826 289.9 328.586 289.22C327.366 288.52 326.396 287.54 325.676 286.28C324.976 285 324.626 283.51 324.626 281.81C324.626 280.11 324.986 278.63 325.706 277.37C326.426 276.09 327.406 275.11 328.646 274.43C329.886 273.73 331.276 273.38 332.816 273.38C334.356 273.38 335.746 273.73 336.986 274.43C338.246 275.11 339.226 276.09 339.926 277.37C340.646 278.63 341.006 280.11 341.006 281.81C341.006 283.49 340.646 284.97 339.926 286.25C339.206 287.53 338.216 288.52 336.956 289.22C335.696 289.9 334.296 290.24 332.756 290.24ZM332.756 288.41C333.836 288.41 334.836 288.17 335.756 287.69C336.676 287.19 337.416 286.45 337.976 285.47C338.556 284.47 338.846 283.25 338.846 281.81C338.846 280.37 338.566 279.16 338.006 278.18C337.446 277.18 336.706 276.44 335.786 275.96C334.866 275.46 333.866 275.21 332.786 275.21C331.706 275.21 330.706 275.46 329.786 275.96C328.866 276.44 328.126 277.18 327.566 278.18C327.026 279.16 326.756 280.37 326.756 281.81C326.756 283.25 327.026 284.47 327.566 285.47C328.126 286.45 328.856 287.19 329.756 287.69C330.676 288.17 331.676 288.41 332.756 288.41ZM364.334 273.32C366.254 273.32 367.814 273.93 369.014 275.15C370.234 276.35 370.844 278.1 370.844 280.4V290H368.774V280.64C368.774 278.86 368.344 277.5 367.484 276.56C366.624 275.62 365.454 275.15 363.974 275.15C362.434 275.15 361.204 275.66 360.284 276.68C359.364 277.7 358.904 279.18 358.904 281.12V290H356.834V280.64C356.834 278.86 356.404 277.5 355.544 276.56C354.684 275.62 353.504 275.15 352.004 275.15C350.464 275.15 349.234 275.66 348.314 276.68C347.394 277.7 346.934 279.18 346.934 281.12V290H344.834V273.62H346.934V276.44C347.454 275.42 348.194 274.65 349.154 274.13C350.114 273.59 351.184 273.32 352.364 273.32C353.784 273.32 355.024 273.66 356.084 274.34C357.164 275.02 357.944 276.02 358.424 277.34C358.864 276.04 359.614 275.05 360.674 274.37C361.754 273.67 362.974 273.32 364.334 273.32ZM395.007 273.32C396.927 273.32 398.487 273.93 399.687 275.15C400.907 276.35 401.517 278.1 401.517 280.4V290H399.447V280.64C399.447 278.86 399.017 277.5 398.157 276.56C397.297 275.62 396.127 275.15 394.647 275.15C393.107 275.15 391.877 275.66 390.957 276.68C390.037 277.7 389.577 279.18 389.577 281.12V290H387.507V280.64C387.507 278.86 387.077 277.5 386.217 276.56C385.357 275.62 384.177 275.15 382.677 275.15C381.137 275.15 379.907 275.66 378.987 276.68C378.067 277.7 377.607 279.18 377.607 281.12V290H375.507V273.62H377.607V276.44C378.127 275.42 378.867 274.65 379.827 274.13C380.787 273.59 381.857 273.32 383.037 273.32C384.457 273.32 385.697 273.66 386.757 274.34C387.837 275.02 388.617 276.02 389.097 277.34C389.537 276.04 390.287 275.05 391.347 274.37C392.427 273.67 393.647 273.32 395.007 273.32ZM421.001 280.97C421.001 281.69 420.981 282.24 420.941 282.62H407.351C407.411 283.86 407.711 284.92 408.251 285.8C408.791 286.68 409.501 287.35 410.381 287.81C411.261 288.25 412.221 288.47 413.261 288.47C414.621 288.47 415.761 288.14 416.681 287.48C417.621 286.82 418.241 285.93 418.541 284.81H420.761C420.361 286.41 419.501 287.72 418.181 288.74C416.881 289.74 415.241 290.24 413.261 290.24C411.721 290.24 410.341 289.9 409.121 289.22C407.901 288.52 406.941 287.54 406.241 286.28C405.561 285 405.221 283.51 405.221 281.81C405.221 280.11 405.561 278.62 406.241 277.34C406.921 276.06 407.871 275.08 409.091 274.4C410.311 273.72 411.701 273.38 413.261 273.38C414.821 273.38 416.181 273.72 417.341 274.4C418.521 275.08 419.421 276 420.041 277.16C420.681 278.3 421.001 279.57 421.001 280.97ZM418.871 280.91C418.891 279.69 418.641 278.65 418.121 277.79C417.621 276.93 416.931 276.28 416.051 275.84C415.171 275.4 414.211 275.18 413.171 275.18C411.611 275.18 410.281 275.68 409.181 276.68C408.081 277.68 407.471 279.09 407.351 280.91H418.871ZM426.943 276.53C427.403 275.51 428.103 274.72 429.043 274.16C430.003 273.6 431.173 273.32 432.553 273.32V275.51H431.983C430.463 275.51 429.243 275.92 428.323 276.74C427.403 277.56 426.943 278.93 426.943 280.85V290H424.843V273.62H426.943V276.53ZM434.753 281.81C434.753 280.11 435.093 278.63 435.773 277.37C436.453 276.09 437.393 275.11 438.593 274.43C439.793 273.73 441.163 273.38 442.703 273.38C444.723 273.38 446.383 273.88 447.683 274.88C449.003 275.88 449.853 277.24 450.233 278.96H447.983C447.703 277.78 447.093 276.86 446.153 276.2C445.233 275.52 444.083 275.18 442.703 275.18C441.603 275.18 440.613 275.43 439.733 275.93C438.853 276.43 438.153 277.18 437.633 278.18C437.133 279.16 436.883 280.37 436.883 281.81C436.883 283.25 437.133 284.47 437.633 285.47C438.153 286.47 438.853 287.22 439.733 287.72C440.613 288.22 441.603 288.47 442.703 288.47C444.083 288.47 445.233 288.14 446.153 287.48C447.093 286.8 447.703 285.86 447.983 284.66H450.233C449.853 286.34 449.003 287.69 447.683 288.71C446.363 289.73 444.703 290.24 442.703 290.24C441.163 290.24 439.793 289.9 438.593 289.22C437.393 288.52 436.453 287.54 435.773 286.28C435.093 285 434.753 283.51 434.753 281.81ZM468.931 280.97C468.931 281.69 468.911 282.24 468.871 282.62H455.281C455.341 283.86 455.641 284.92 456.181 285.8C456.721 286.68 457.431 287.35 458.311 287.81C459.191 288.25 460.151 288.47 461.191 288.47C462.551 288.47 463.691 288.14 464.611 287.48C465.551 286.82 466.171 285.93 466.471 284.81H468.691C468.291 286.41 467.431 287.72 466.111 288.74C464.811 289.74 463.171 290.24 461.191 290.24C459.651 290.24 458.271 289.9 457.051 289.22C455.831 288.52 454.871 287.54 454.171 286.28C453.491 285 453.151 283.51 453.151 281.81C453.151 280.11 453.491 278.62 454.171 277.34C454.851 276.06 455.801 275.08 457.021 274.4C458.241 273.72 459.631 273.38 461.191 273.38C462.751 273.38 464.111 273.72 465.271 274.4C466.451 275.08 467.351 276 467.971 277.16C468.611 278.3 468.931 279.57 468.931 280.97ZM466.801 280.91C466.821 279.69 466.571 278.65 466.051 277.79C465.551 276.93 464.861 276.28 463.981 275.84C463.101 275.4 462.141 275.18 461.101 275.18C459.541 275.18 458.211 275.68 457.111 276.68C456.011 277.68 455.401 279.09 455.281 280.91H466.801Z" fill="#333533"/>
<path d="M204.95 79.8H191.85L189.75 86H180.8L193.5 50.9H203.4L216.1 86H207.05L204.95 79.8ZM202.75 73.2L198.4 60.35L194.1 73.2H202.75ZM219.015 72.25C219.015 69.4167 219.582 66.95 220.715 64.85C221.849 62.7167 223.415 61.0667 225.415 59.9C227.449 58.7333 229.765 58.15 232.365 58.15C235.732 58.15 238.499 58.9667 240.665 60.6C242.865 62.2333 244.315 64.5 245.015 67.4H240.115C239.649 65.7333 238.732 64.4167 237.365 63.45C236.032 62.4833 234.365 62 232.365 62C229.765 62 227.665 62.9 226.065 64.7C224.465 66.4667 223.665 68.9833 223.665 72.25C223.665 75.55 224.465 78.1 226.065 79.9C227.665 81.7 229.765 82.6 232.365 82.6C234.365 82.6 236.032 82.1333 237.365 81.2C238.699 80.2667 239.615 78.9333 240.115 77.2H245.015C244.282 80 242.815 82.25 240.615 83.95C238.415 85.6167 235.665 86.45 232.365 86.45C229.765 86.45 227.449 85.8667 225.415 84.7C223.415 83.5333 221.849 81.8833 220.715 79.75C219.582 77.6167 219.015 75.1167 219.015 72.25ZM276.086 71.25C276.086 72.1167 276.036 73.0333 275.936 74H254.036C254.203 76.7 255.12 78.8167 256.786 80.35C258.486 81.85 260.536 82.6 262.936 82.6C264.903 82.6 266.536 82.15 267.836 81.25C269.17 80.3167 270.103 79.0833 270.636 77.55H275.536C274.803 80.1833 273.336 82.3333 271.136 84C268.936 85.6333 266.203 86.45 262.936 86.45C260.336 86.45 258.003 85.8667 255.936 84.7C253.903 83.5333 252.303 81.8833 251.136 79.75C249.97 77.5833 249.386 75.0833 249.386 72.25C249.386 69.4167 249.953 66.9333 251.086 64.8C252.22 62.6667 253.803 61.0333 255.836 59.9C257.903 58.7333 260.27 58.15 262.936 58.15C265.536 58.15 267.836 58.7167 269.836 59.85C271.836 60.9833 273.37 62.55 274.436 64.55C275.536 66.5167 276.086 68.75 276.086 71.25ZM271.386 70.3C271.386 68.5667 271.003 67.0833 270.236 65.85C269.47 64.5833 268.42 63.6333 267.086 63C265.786 62.3333 264.336 62 262.736 62C260.436 62 258.47 62.7333 256.836 64.2C255.236 65.6667 254.32 67.7 254.086 70.3H271.386ZM291.792 86.45C289.692 86.45 287.809 86.1 286.142 85.4C284.476 84.6667 283.159 83.6667 282.192 82.4C281.226 81.1 280.692 79.6167 280.592 77.95H285.292C285.426 79.3167 286.059 80.4333 287.192 81.3C288.359 82.1667 289.876 82.6 291.742 82.6C293.476 82.6 294.842 82.2167 295.842 81.45C296.842 80.6833 297.342 79.7167 297.342 78.55C297.342 77.35 296.809 76.4667 295.742 75.9C294.676 75.3 293.026 74.7167 290.792 74.15C288.759 73.6167 287.092 73.0833 285.792 72.55C284.526 71.9833 283.426 71.1667 282.492 70.1C281.592 69 281.142 67.5667 281.142 65.8C281.142 64.4 281.559 63.1167 282.392 61.95C283.226 60.7833 284.409 59.8667 285.942 59.2C287.476 58.5 289.226 58.15 291.192 58.15C294.226 58.15 296.676 58.9167 298.542 60.45C300.409 61.9833 301.409 64.0833 301.542 66.75H296.992C296.892 65.3167 296.309 64.1667 295.242 63.3C294.209 62.4333 292.809 62 291.042 62C289.409 62 288.109 62.35 287.142 63.05C286.176 63.75 285.692 64.6667 285.692 65.8C285.692 66.7 285.976 67.45 286.542 68.05C287.142 68.6167 287.876 69.0833 288.742 69.45C289.642 69.7833 290.876 70.1667 292.442 70.6C294.409 71.1333 296.009 71.6667 297.242 72.2C298.476 72.7 299.526 73.4667 300.392 74.5C301.292 75.5333 301.759 76.8833 301.792 78.55C301.792 80.05 301.376 81.4 300.542 82.6C299.709 83.8 298.526 84.75 296.992 85.45C295.492 86.1167 293.759 86.45 291.792 86.45ZM317.915 86.45C315.815 86.45 313.932 86.1 312.265 85.4C310.599 84.6667 309.282 83.6667 308.315 82.4C307.349 81.1 306.815 79.6167 306.715 77.95H311.415C311.549 79.3167 312.182 80.4333 313.315 81.3C314.482 82.1667 315.999 82.6 317.865 82.6C319.599 82.6 320.965 82.2167 321.965 81.45C322.965 80.6833 323.465 79.7167 323.465 78.55C323.465 77.35 322.932 76.4667 321.865 75.9C320.799 75.3 319.149 74.7167 316.915 74.15C314.882 73.6167 313.215 73.0833 311.915 72.55C310.649 71.9833 309.549 71.1667 308.615 70.1C307.715 69 307.265 67.5667 307.265 65.8C307.265 64.4 307.682 63.1167 308.515 61.95C309.349 60.7833 310.532 59.8667 312.065 59.2C313.599 58.5 315.349 58.15 317.315 58.15C320.349 58.15 322.799 58.9167 324.665 60.45C326.532 61.9833 327.532 64.0833 327.665 66.75H323.115C323.015 65.3167 322.432 64.1667 321.365 63.3C320.332 62.4333 318.932 62 317.165 62C315.532 62 314.232 62.35 313.265 63.05C312.299 63.75 311.815 64.6667 311.815 65.8C311.815 66.7 312.099 67.45 312.665 68.05C313.265 68.6167 313.999 69.0833 314.865 69.45C315.765 69.7833 316.999 70.1667 318.565 70.6C320.532 71.1333 322.132 71.6667 323.365 72.2C324.599 72.7 325.649 73.4667 326.515 74.5C327.415 75.5333 327.882 76.8833 327.915 78.55C327.915 80.05 327.499 81.4 326.665 82.6C325.832 83.8 324.649 84.75 323.115 85.45C321.615 86.1167 319.882 86.45 317.915 86.45ZM346.288 86.45C343.722 86.45 341.388 85.8667 339.288 84.7C337.222 83.5333 335.588 81.8833 334.388 79.75C333.222 77.5833 332.638 75.0833 332.638 72.25C332.638 69.45 333.238 66.9833 334.438 64.85C335.672 62.6833 337.338 61.0333 339.438 59.9C341.538 58.7333 343.888 58.15 346.488 58.15C349.088 58.15 351.438 58.7333 353.538 59.9C355.638 61.0333 357.288 62.6667 358.488 64.8C359.722 66.9333 360.338 69.4167 360.338 72.25C360.338 75.0833 359.705 77.5833 358.438 79.75C357.205 81.8833 355.522 83.5333 353.388 84.7C351.255 85.8667 348.888 86.45 346.288 86.45ZM346.288 82.45C347.922 82.45 349.455 82.0667 350.888 81.3C352.322 80.5333 353.472 79.3833 354.338 77.85C355.238 76.3167 355.688 74.45 355.688 72.25C355.688 70.05 355.255 68.1833 354.388 66.65C353.522 65.1167 352.388 63.9833 350.988 63.25C349.588 62.4833 348.072 62.1 346.438 62.1C344.772 62.1 343.238 62.4833 341.838 63.25C340.472 63.9833 339.372 65.1167 338.538 66.65C337.705 68.1833 337.288 70.05 337.288 72.25C337.288 74.4833 337.688 76.3667 338.488 77.9C339.322 79.4333 340.422 80.5833 341.788 81.35C343.155 82.0833 344.655 82.45 346.288 82.45ZM396.801 86L389.501 72.75H387.451V86H378.901V50.9H393.251C396.017 50.9 398.367 51.3833 400.301 52.35C402.267 53.3167 403.734 54.65 404.701 56.35C405.667 58.0167 406.151 59.8833 406.151 61.95C406.151 64.2833 405.484 66.3667 404.151 68.2C402.851 70.0333 400.917 71.3333 398.351 72.1L406.451 86H396.801ZM387.451 66.7H392.751C394.317 66.7 395.484 66.3167 396.251 65.55C397.051 64.7833 397.451 63.7 397.451 62.3C397.451 60.9667 397.051 59.9167 396.251 59.15C395.484 58.3833 394.317 58 392.751 58H387.451V66.7ZM437.268 71.25C437.268 72.1167 437.218 73.0333 437.118 74H415.218C415.385 76.7 416.301 78.8167 417.968 80.35C419.668 81.85 421.718 82.6 424.118 82.6C426.085 82.6 427.718 82.15 429.018 81.25C430.351 80.3167 431.285 79.0833 431.818 77.55H436.718C435.985 80.1833 434.518 82.3333 432.318 84C430.118 85.6333 427.385 86.45 424.118 86.45C421.518 86.45 419.185 85.8667 417.118 84.7C415.085 83.5333 413.485 81.8833 412.318 79.75C411.151 77.5833 410.568 75.0833 410.568 72.25C410.568 69.4167 411.135 66.9333 412.268 64.8C413.401 62.6667 414.985 61.0333 417.018 59.9C419.085 58.7333 421.451 58.15 424.118 58.15C426.718 58.15 429.018 58.7167 431.018 59.85C433.018 60.9833 434.551 62.55 435.618 64.55C436.718 66.5167 437.268 68.75 437.268 71.25ZM432.568 70.3C432.568 68.5667 432.185 67.0833 431.418 65.85C430.651 64.5833 429.601 63.6333 428.268 63C426.968 62.3333 425.518 62 423.918 62C421.618 62 419.651 62.7333 418.018 64.2C416.418 65.6667 415.501 67.7 415.268 70.3H432.568ZM452.974 86.45C450.874 86.45 448.99 86.1 447.324 85.4C445.657 84.6667 444.34 83.6667 443.374 82.4C442.407 81.1 441.874 79.6167 441.774 77.95H446.474C446.607 79.3167 447.24 80.4333 448.374 81.3C449.54 82.1667 451.057 82.6 452.924 82.6C454.657 82.6 456.024 82.2167 457.024 81.45C458.024 80.6833 458.524 79.7167 458.524 78.55C458.524 77.35 457.99 76.4667 456.924 75.9C455.857 75.3 454.207 74.7167 451.974 74.15C449.94 73.6167 448.274 73.0833 446.974 72.55C445.707 71.9833 444.607 71.1667 443.674 70.1C442.774 69 442.324 67.5667 442.324 65.8C442.324 64.4 442.74 63.1167 443.574 61.95C444.407 60.7833 445.59 59.8667 447.124 59.2C448.657 58.5 450.407 58.15 452.374 58.15C455.407 58.15 457.857 58.9167 459.724 60.45C461.59 61.9833 462.59 64.0833 462.724 66.75H458.174C458.074 65.3167 457.49 64.1667 456.424 63.3C455.39 62.4333 453.99 62 452.224 62C450.59 62 449.29 62.35 448.324 63.05C447.357 63.75 446.874 64.6667 446.874 65.8C446.874 66.7 447.157 67.45 447.724 68.05C448.324 68.6167 449.057 69.0833 449.924 69.45C450.824 69.7833 452.057 70.1667 453.624 70.6C455.59 71.1333 457.19 71.6667 458.424 72.2C459.657 72.7 460.707 73.4667 461.574 74.5C462.474 75.5333 462.94 76.8833 462.974 78.55C462.974 80.05 462.557 81.4 461.724 82.6C460.89 83.8 459.707 84.75 458.174 85.45C456.674 86.1167 454.94 86.45 452.974 86.45ZM474.947 62.35V78.5C474.947 79.8333 475.23 80.7833 475.797 81.35C476.364 81.8833 477.347 82.15 478.747 82.15H482.097V86H477.997C475.464 86 473.564 85.4167 472.297 84.25C471.03 83.0833 470.397 81.1667 470.397 78.5V62.35H466.847V58.6H470.397V51.7H474.947V58.6H482.097V62.35H474.947ZM492.16 63.05C492.96 61.4833 494.093 60.2667 495.56 59.4C497.06 58.5333 498.876 58.1 501.01 58.1V62.8H499.81C494.71 62.8 492.16 65.5667 492.16 71.1V86H487.61V58.6H492.16V63.05ZM508.612 54.15C507.745 54.15 507.012 53.85 506.412 53.25C505.812 52.65 505.512 51.9167 505.512 51.05C505.512 50.1833 505.812 49.45 506.412 48.85C507.012 48.25 507.745 47.95 508.612 47.95C509.445 47.95 510.145 48.25 510.712 48.85C511.312 49.45 511.612 50.1833 511.612 51.05C511.612 51.9167 511.312 52.65 510.712 53.25C510.145 53.85 509.445 54.15 508.612 54.15ZM510.812 58.6V86H506.262V58.6H510.812ZM524.117 62.35V78.5C524.117 79.8333 524.4 80.7833 524.967 81.35C525.533 81.8833 526.517 82.15 527.917 82.15H531.267V86H527.167C524.633 86 522.733 85.4167 521.467 84.25C520.2 83.0833 519.567 81.1667 519.567 78.5V62.35H516.017V58.6H519.567V51.7H524.117V58.6H531.267V62.35H524.117ZM548.73 86.45C546.163 86.45 543.83 85.8667 541.73 84.7C539.663 83.5333 538.03 81.8833 536.83 79.75C535.663 77.5833 535.08 75.0833 535.08 72.25C535.08 69.45 535.68 66.9833 536.88 64.85C538.113 62.6833 539.78 61.0333 541.88 59.9C543.98 58.7333 546.33 58.15 548.93 58.15C551.53 58.15 553.88 58.7333 555.98 59.9C558.08 61.0333 559.73 62.6667 560.93 64.8C562.163 66.9333 562.78 69.4167 562.78 72.25C562.78 75.0833 562.146 77.5833 560.88 79.75C559.646 81.8833 557.963 83.5333 555.83 84.7C553.696 85.8667 551.33 86.45 548.73 86.45ZM548.73 82.45C550.363 82.45 551.896 82.0667 553.33 81.3C554.763 80.5333 555.913 79.3833 556.78 77.85C557.68 76.3167 558.13 74.45 558.13 72.25C558.13 70.05 557.696 68.1833 556.83 66.65C555.963 65.1167 554.83 63.9833 553.43 63.25C552.03 62.4833 550.513 62.1 548.88 62.1C547.213 62.1 545.68 62.4833 544.28 63.25C542.913 63.9833 541.813 65.1167 540.98 66.65C540.146 68.1833 539.73 70.05 539.73 72.25C539.73 74.4833 540.13 76.3667 540.93 77.9C541.763 79.4333 542.863 80.5833 544.23 81.35C545.596 82.0833 547.096 82.45 548.73 82.45Z" fill="#333533"/>
</svg>
