<svg width="1425" height="1555" viewBox="0 0 1425 1555" fill="none" xmlns="http://www.w3.org/2000/svg">
<g clip-path="url(#clip0)">
<rect width="1425" height="1555" fill="#E5E5E5"/>
<path opacity="0.5" d="M59.2176 162C65.8862 166.696 79.8583 170.993 82.3984 150.613L114.924 68.2515C112.704 66.8413 107.741 64.5318 105.65 66.5752C103.732 63.81 99.6799 58.7298 98.8166 60.5311L54.8381 152.287C54.3776 155.181 51.1688 159.942 42.018 155.833L-24.1009 116.874C-26.3531 116.256 -29.2426 112.956 -22.7832 104.699L17.1155 27.2558C18.2312 24.4448 23.0135 20.4607 33.2174 27.0128C39.0746 30.7431 50.3843 39.0482 48.7655 42.4257C47.8018 45.8864 44.631 52.212 39.6574 49.8282C37.4587 49.5819 33.7795 47.0109 36.6525 38.6966L56.2135 -2.11484C60.0996 -6.59768 69.7447 -14.2504 77.2358 -8.99859C81.708 -6.97044 90.687 -2.5514 90.8256 -1.1005C92.7479 1.89755 95.6379 9.30518 91.8197 14.9513L71.7448 58.2853C71.5838 62.2462 73.1748 69.0774 80.826 64.7146C82.9371 62.7268 86.0432 57.4546 81.5786 52.2689L59.3761 40.589" stroke="#333533" stroke-width="3"/>
<path opacity="0.5" d="M40.0889 107.605C37.244 106.242 37.5194 102.952 38.0127 101.478L31.9359 103.697L13.4616 94.8427C14.2617 93.1734 17.3836 92.4457 18.8445 92.2907L24.7424 95.1175L25.1591 94.2481C28.085 94.1965 28.4476 90.7993 28.2631 89.1072L20.7173 85.4905C18.2193 84.2932 17.4918 81.0934 17.4403 79.6432L19.8572 74.6006C23.2173 71.5069 26.6661 72.4115 27.9705 73.2505L28.8455 71.4247C30.2532 65.15 31.1103 64.9193 33.7627 61.1656C37.7914 58.9911 41.4722 60.0993 42.7017 60.3182C49.0894 61.4554 51.6422 67.7752 51.9555 71.2753L40.5793 95.0103L42.9211 96.1328C44.5845 94.6207 48.1257 94.1012 49.6883 94.0305L55.4995 96.8158L54.6244 98.6416L51.6755 97.2282C49.9476 96.8276 47.0809 96.2662 49.4373 97.2246C51.7938 98.183 52.3216 101.814 52.2908 103.51L48.4154 111.596L40.0889 107.605ZM40.0889 107.605C42.9338 108.969 46.8252 110.834 48.4154 111.596L40.0889 107.605ZM40.0889 107.605L48.4154 111.596L40.0889 107.605ZM7.1131 109.868L20.1232 116.104L17.4562 121.668L12.0787 119.091C10.0561 118.193 6.23125 115.091 7.1131 109.868ZM7.24359 104.478L22.2485 111.67L24.6237 106.714L9.61878 99.5223L7.24359 104.478ZM42.7603 99.5838C40.9379 101.383 39.0155 105.572 45.9046 107.933C47.9784 104.793 50.2529 98.7274 42.7603 99.5838ZM22.3449 84.9876L36.309 91.6806C35.3322 87.0427 32.6055 77.3324 29.5138 75.5939C28.236 74.6251 23.8461 73.1768 21.5052 75.3905L19.4216 79.7375C19.0962 80.9358 20.1245 83.9234 22.3449 84.9876ZM40.7717 90.826L49.5643 72.4813C49.7368 68.8576 47.5709 62.7706 41.8682 62.057C40.057 61.8304 37.9652 60.1863 33.8868 63.5772L32.5882 65.8415L31.6365 68.272C30.6016 70.8765 34.9607 83.6787 38.6033 89.7867L40.7717 90.826Z" fill="#333533" stroke="#333533"/>
<path opacity="0.5" d="M460.217 954C466.886 958.696 480.858 962.993 483.398 942.613L515.924 860.251C513.704 858.841 508.741 856.532 506.65 858.575C504.732 855.81 500.68 850.73 499.816 852.531L455.838 944.286C455.377 947.181 452.169 951.942 443.018 947.833L376.899 908.874C374.647 908.256 371.757 904.956 378.217 896.699L418.115 819.256C419.231 816.445 424.013 812.461 434.217 819.013C440.074 822.743 451.384 831.048 449.765 834.426C448.802 837.886 445.631 844.212 440.657 841.828C438.458 841.582 434.779 839.011 437.652 830.697L457.213 789.885C461.099 785.402 470.744 777.749 478.236 783.001C482.708 785.029 491.687 789.448 491.825 790.899C493.748 793.897 496.638 801.305 492.82 806.951L472.745 850.285C472.584 854.246 474.175 861.077 481.826 856.714C483.937 854.727 487.043 849.455 482.578 844.269L460.376 832.589" stroke="#333533" stroke-width="3"/>
<path opacity="0.5" d="M441.089 899.605C438.244 898.241 438.519 894.952 439.013 893.478L432.936 895.697L414.462 886.843C415.262 885.173 418.384 884.446 419.845 884.291L425.742 887.117L426.159 886.248C429.085 886.196 429.448 882.799 429.263 881.107L421.717 877.49C419.219 876.293 418.492 873.093 418.44 871.643L420.857 866.6C424.217 863.507 427.666 864.411 428.97 865.25L429.846 863.425C431.253 857.15 432.11 856.919 434.763 853.166C438.791 850.991 442.472 852.099 443.702 852.318C450.089 853.455 452.642 859.775 452.956 863.275L441.579 887.01L443.921 888.133C445.584 886.621 449.126 886.101 450.688 886.03L456.499 888.816L455.624 890.641L452.675 889.228C450.948 888.828 448.081 888.266 450.437 889.224C452.794 890.183 453.322 893.814 453.291 895.51L449.415 903.596L441.089 899.605ZM441.089 899.605C443.934 900.969 447.825 902.834 449.415 903.596L441.089 899.605ZM441.089 899.605L449.415 903.596L441.089 899.605ZM408.113 901.868L421.123 908.104L418.456 913.668L413.079 911.091C411.056 910.192 407.231 907.091 408.113 901.868ZM408.244 896.478L423.249 903.67L425.624 898.714L410.619 891.522L408.244 896.478ZM443.76 891.584C441.938 893.383 440.015 897.572 446.905 899.933C448.978 896.793 451.253 890.727 443.76 891.584ZM423.345 876.987L437.309 883.68C436.332 879.043 433.606 869.332 430.514 867.594C429.236 866.625 424.846 865.177 422.505 867.39L420.422 871.737C420.096 872.936 421.124 875.923 423.345 876.987ZM441.772 882.826L450.564 864.481C450.737 860.857 448.571 854.77 442.868 854.057C441.057 853.83 438.965 852.186 434.887 855.577L433.588 857.841L432.637 860.272C431.602 862.876 435.961 875.679 439.603 881.787L441.772 882.826Z" fill="#333533" stroke="#333533"/>
<path opacity="0.5" d="M1034.22 1517C1040.89 1521.7 1054.86 1525.99 1057.4 1505.61L1089.92 1423.25C1087.7 1421.84 1082.74 1419.53 1080.65 1421.58C1078.73 1418.81 1074.68 1413.73 1073.82 1415.53L1029.84 1507.29C1029.38 1510.18 1026.17 1514.94 1017.02 1510.83L950.899 1471.87C948.647 1471.26 945.757 1467.96 952.217 1459.7L992.115 1382.26C993.231 1379.44 998.013 1375.46 1008.22 1382.01C1014.07 1385.74 1025.38 1394.05 1023.77 1397.43C1022.8 1400.89 1019.63 1407.21 1014.66 1404.83C1012.46 1404.58 1008.78 1402.01 1011.65 1393.7L1031.21 1352.89C1035.1 1348.4 1044.74 1340.75 1052.24 1346C1056.71 1348.03 1065.69 1352.45 1065.83 1353.9C1067.75 1356.9 1070.64 1364.31 1066.82 1369.95L1046.74 1413.29C1046.58 1417.25 1048.17 1424.08 1055.83 1419.71C1057.94 1417.73 1061.04 1412.45 1056.58 1407.27L1034.38 1395.59" stroke="#333533" stroke-width="3"/>
<path opacity="0.5" d="M1015.09 1462.6C1012.24 1461.24 1012.52 1457.95 1013.01 1456.48L1006.94 1458.7L988.462 1449.84C989.262 1448.17 992.384 1447.45 993.845 1447.29L999.742 1450.12L1000.16 1449.25C1003.09 1449.2 1003.45 1445.8 1003.26 1444.11L995.717 1440.49C993.219 1439.29 992.492 1436.09 992.44 1434.64L994.857 1429.6C998.217 1426.51 1001.67 1427.41 1002.97 1428.25L1003.85 1426.42C1005.25 1420.15 1006.11 1419.92 1008.76 1416.17C1012.79 1413.99 1016.47 1415.1 1017.7 1415.32C1024.09 1416.46 1026.64 1422.78 1026.96 1426.28L1015.58 1450.01L1017.92 1451.13C1019.58 1449.62 1023.13 1449.1 1024.69 1449.03L1030.5 1451.82L1029.62 1453.64L1026.68 1452.23C1024.95 1451.83 1022.08 1451.27 1024.44 1452.22C1026.79 1453.18 1027.32 1456.81 1027.29 1458.51L1023.42 1466.6L1015.09 1462.6ZM1015.09 1462.6C1017.93 1463.97 1021.83 1465.83 1023.42 1466.6L1015.09 1462.6ZM1015.09 1462.6L1023.42 1466.6L1015.09 1462.6ZM982.113 1464.87L995.123 1471.1L992.456 1476.67L987.079 1474.09C985.056 1473.19 981.231 1470.09 982.113 1464.87ZM982.244 1459.48L997.249 1466.67L999.624 1461.71L984.619 1454.52L982.244 1459.48ZM1017.76 1454.58C1015.94 1456.38 1014.02 1460.57 1020.9 1462.93C1022.98 1459.79 1025.25 1453.73 1017.76 1454.58ZM997.345 1439.99L1011.31 1446.68C1010.33 1442.04 1007.61 1432.33 1004.51 1430.59C1003.24 1429.62 998.846 1428.18 996.505 1430.39L994.422 1434.74C994.096 1435.94 995.124 1438.92 997.345 1439.99ZM1015.77 1445.83L1024.56 1427.48C1024.74 1423.86 1022.57 1417.77 1016.87 1417.06C1015.06 1416.83 1012.97 1415.19 1008.89 1418.58L1007.59 1420.84L1006.64 1423.27C1005.6 1425.88 1009.96 1438.68 1013.6 1444.79L1015.77 1445.83Z" fill="#333533" stroke="#333533"/>
<path opacity="0.5" d="M208.217 1265C214.886 1269.7 228.858 1273.99 231.398 1253.61L263.924 1171.25C261.704 1169.84 256.741 1167.53 254.65 1169.58C252.732 1166.81 248.68 1161.73 247.816 1163.53L203.838 1255.29C203.377 1258.18 200.169 1262.94 191.018 1258.83L124.899 1219.87C122.647 1219.26 119.757 1215.96 126.217 1207.7L166.115 1130.26C167.231 1127.44 172.013 1123.46 182.217 1130.01C188.074 1133.74 199.384 1142.05 197.765 1145.43C196.802 1148.89 193.631 1155.21 188.657 1152.83C186.458 1152.58 182.779 1150.01 185.652 1141.7L205.213 1100.89C209.099 1096.4 218.744 1088.75 226.236 1094C230.708 1096.03 239.687 1100.45 239.825 1101.9C241.748 1104.9 244.638 1112.31 240.82 1117.95L220.745 1161.29C220.584 1165.25 222.175 1172.08 229.826 1167.71C231.937 1165.73 235.043 1160.45 230.578 1155.27L208.376 1143.59" stroke="#333533" stroke-width="3"/>
<path opacity="0.5" d="M189.089 1210.6C186.244 1209.24 186.519 1205.95 187.013 1204.48L180.936 1206.7L162.462 1197.84C163.262 1196.17 166.384 1195.45 167.845 1195.29L173.742 1198.12L174.159 1197.25C177.085 1197.2 177.448 1193.8 177.263 1192.11L169.717 1188.49C167.219 1187.29 166.492 1184.09 166.44 1182.64L168.857 1177.6C172.217 1174.51 175.666 1175.41 176.97 1176.25L177.846 1174.42C179.253 1168.15 180.11 1167.92 182.763 1164.17C186.791 1161.99 190.472 1163.1 191.702 1163.32C198.089 1164.46 200.642 1170.78 200.956 1174.28L189.579 1198.01L191.921 1199.13C193.584 1197.62 197.126 1197.1 198.688 1197.03L204.499 1199.82L203.624 1201.64L200.675 1200.23C198.948 1199.83 196.081 1199.27 198.437 1200.22C200.794 1201.18 201.322 1204.81 201.291 1206.51L197.415 1214.6L189.089 1210.6ZM189.089 1210.6C191.934 1211.97 195.825 1213.83 197.415 1214.6L189.089 1210.6ZM189.089 1210.6L197.415 1214.6L189.089 1210.6ZM156.113 1212.87L169.123 1219.1L166.456 1224.67L161.079 1222.09C159.056 1221.19 155.231 1218.09 156.113 1212.87ZM156.244 1207.48L171.249 1214.67L173.624 1209.71L158.619 1202.52L156.244 1207.48ZM191.76 1202.58C189.938 1204.38 188.015 1208.57 194.905 1210.93C196.978 1207.79 199.253 1201.73 191.76 1202.58ZM171.345 1187.99L185.309 1194.68C184.332 1190.04 181.606 1180.33 178.514 1178.59C177.236 1177.62 172.846 1176.18 170.505 1178.39L168.422 1182.74C168.096 1183.94 169.124 1186.92 171.345 1187.99ZM189.772 1193.83L198.564 1175.48C198.737 1171.86 196.571 1165.77 190.868 1165.06C189.057 1164.83 186.965 1163.19 182.887 1166.58L181.588 1168.84L180.637 1171.27C179.602 1173.88 183.961 1186.68 187.603 1192.79L189.772 1193.83Z" fill="#333533" stroke="#333533"/>
<path opacity="0.5" d="M1255.22 1260C1261.89 1264.7 1275.86 1268.99 1278.4 1248.61L1310.92 1166.25C1308.7 1164.84 1303.74 1162.53 1301.65 1164.58C1299.73 1161.81 1295.68 1156.73 1294.82 1158.53L1250.84 1250.29C1250.38 1253.18 1247.17 1257.94 1238.02 1253.83L1171.9 1214.87C1169.65 1214.26 1166.76 1210.96 1173.22 1202.7L1213.12 1125.26C1214.23 1122.44 1219.01 1118.46 1229.22 1125.01C1235.07 1128.74 1246.38 1137.05 1244.77 1140.43C1243.8 1143.89 1240.63 1150.21 1235.66 1147.83C1233.46 1147.58 1229.78 1145.01 1232.65 1136.7L1252.21 1095.89C1256.1 1091.4 1265.74 1083.75 1273.24 1089C1277.71 1091.03 1286.69 1095.45 1286.83 1096.9C1288.75 1099.9 1291.64 1107.31 1287.82 1112.95L1267.74 1156.29C1267.58 1160.25 1269.17 1167.08 1276.83 1162.71C1278.94 1160.73 1282.04 1155.45 1277.58 1150.27L1255.38 1138.59" stroke="#333533" stroke-width="3"/>
<path opacity="0.5" d="M1236.09 1205.6C1233.24 1204.24 1233.52 1200.95 1234.01 1199.48L1227.94 1201.7L1209.46 1192.84C1210.26 1191.17 1213.38 1190.45 1214.84 1190.29L1220.74 1193.12L1221.16 1192.25C1224.09 1192.2 1224.45 1188.8 1224.26 1187.11L1216.72 1183.49C1214.22 1182.29 1213.49 1179.09 1213.44 1177.64L1215.86 1172.6C1219.22 1169.51 1222.67 1170.41 1223.97 1171.25L1224.85 1169.42C1226.25 1163.15 1227.11 1162.92 1229.76 1159.17C1233.79 1156.99 1237.47 1158.1 1238.7 1158.32C1245.09 1159.46 1247.64 1165.78 1247.96 1169.28L1236.58 1193.01L1238.92 1194.13C1240.58 1192.62 1244.13 1192.1 1245.69 1192.03L1251.5 1194.82L1250.62 1196.64L1247.68 1195.23C1245.95 1194.83 1243.08 1194.27 1245.44 1195.22C1247.79 1196.18 1248.32 1199.81 1248.29 1201.51L1244.42 1209.6L1236.09 1205.6ZM1236.09 1205.6C1238.93 1206.97 1242.83 1208.83 1244.42 1209.6L1236.09 1205.6ZM1236.09 1205.6L1244.42 1209.6L1236.09 1205.6ZM1203.11 1207.87L1216.12 1214.1L1213.46 1219.67L1208.08 1217.09C1206.06 1216.19 1202.23 1213.09 1203.11 1207.87ZM1203.24 1202.48L1218.25 1209.67L1220.62 1204.71L1205.62 1197.52L1203.24 1202.48ZM1238.76 1197.58C1236.94 1199.38 1235.02 1203.57 1241.9 1205.93C1243.98 1202.79 1246.25 1196.73 1238.76 1197.58ZM1218.34 1182.99L1232.31 1189.68C1231.33 1185.04 1228.61 1175.33 1225.51 1173.59C1224.24 1172.62 1219.85 1171.18 1217.51 1173.39L1215.42 1177.74C1215.1 1178.94 1216.12 1181.92 1218.34 1182.99ZM1236.77 1188.83L1245.56 1170.48C1245.74 1166.86 1243.57 1160.77 1237.87 1160.06C1236.06 1159.83 1233.97 1158.19 1229.89 1161.58L1228.59 1163.84L1227.64 1166.27C1226.6 1168.88 1230.96 1181.68 1234.6 1187.79L1236.77 1188.83Z" fill="#333533" stroke="#333533"/>
<path opacity="0.5" d="M748.217 541C754.886 545.696 768.858 549.993 771.398 529.613L803.924 447.251C801.704 445.841 796.741 443.532 794.65 445.575C792.732 442.81 788.68 437.73 787.816 439.531L743.838 531.287C743.377 534.181 740.169 538.942 731.018 534.833L664.899 495.874C662.647 495.256 659.757 491.956 666.217 483.699L706.115 406.256C707.231 403.445 712.013 399.461 722.217 406.013C728.074 409.743 739.384 418.048 737.765 421.426C736.802 424.886 733.631 431.212 728.657 428.828C726.458 428.582 722.779 426.011 725.652 417.697L745.213 376.885C749.099 372.402 758.744 364.75 766.236 370.001C770.708 372.03 779.687 376.449 779.825 377.9C781.748 380.898 784.638 388.305 780.82 393.951L760.745 437.285C760.584 441.246 762.175 448.077 769.826 443.715C771.937 441.727 775.043 436.455 770.578 431.269L748.376 419.589" stroke="#333533" stroke-width="3"/>
<path opacity="0.5" d="M729.089 486.605C726.244 485.242 726.519 481.952 727.013 480.478L720.936 482.697L702.462 473.843C703.262 472.173 706.384 471.446 707.845 471.291L713.742 474.118L714.159 473.248C717.085 473.196 717.448 469.799 717.263 468.107L709.717 464.49C707.219 463.293 706.492 460.093 706.44 458.643L708.857 453.601C712.217 450.507 715.666 451.411 716.97 452.25L717.846 450.425C719.253 444.15 720.11 443.919 722.763 440.166C726.791 437.991 730.472 439.099 731.702 439.318C738.089 440.455 740.642 446.775 740.956 450.275L729.579 474.01L731.921 475.133C733.584 473.621 737.126 473.101 738.688 473.031L744.499 475.816L743.624 477.642L740.675 476.228C738.948 475.828 736.081 475.266 738.437 476.225C740.794 477.183 741.322 480.814 741.291 482.51L737.415 490.596L729.089 486.605ZM729.089 486.605C731.934 487.969 735.825 489.834 737.415 490.596L729.089 486.605ZM729.089 486.605L737.415 490.596L729.089 486.605ZM696.113 488.868L709.123 495.104L706.456 500.668L701.079 498.091C699.056 497.193 695.231 494.091 696.113 488.868ZM696.244 483.478L711.249 490.67L713.624 485.714L698.619 478.522L696.244 483.478ZM731.76 478.584C729.938 480.383 728.015 484.572 734.905 486.933C736.978 483.793 739.253 477.727 731.76 478.584ZM711.345 463.988L725.309 470.681C724.332 466.043 721.606 456.332 718.514 454.594C717.236 453.625 712.846 452.177 710.505 454.39L708.422 458.738C708.096 459.936 709.124 462.923 711.345 463.988ZM729.772 469.826L738.564 451.481C738.737 447.858 736.571 441.771 730.868 441.057C729.057 440.83 726.965 439.186 722.887 442.577L721.588 444.841L720.637 447.272C719.602 449.876 723.961 462.679 727.603 468.787L729.772 469.826Z" fill="#333533" stroke="#333533"/>
<path opacity="0.5" d="M979.217 142C985.886 146.696 999.858 150.993 1002.4 130.613L1034.92 48.2515C1032.7 46.8413 1027.74 44.5318 1025.65 46.5752C1023.73 43.81 1019.68 38.7298 1018.82 40.5311L974.838 132.287C974.377 135.181 971.169 139.942 962.018 135.833L895.899 96.8739C893.647 96.256 890.757 92.9558 897.217 84.6992L937.115 7.25584C938.231 4.44479 943.013 0.460715 953.217 7.01277C959.074 10.7431 970.384 19.0482 968.765 22.4257C967.802 25.8864 964.631 32.212 959.657 29.8282C957.458 29.5819 953.779 27.0109 956.652 18.6966L976.213 -22.1148C980.099 -26.5977 989.744 -34.2504 997.236 -28.9986C1001.71 -26.9704 1010.69 -22.5514 1010.83 -21.1005C1012.75 -18.1024 1015.64 -10.6948 1011.82 -5.04874L991.745 38.2853C991.584 42.2462 993.175 49.0774 1000.83 44.7146C1002.94 42.7268 1006.04 37.4546 1001.58 32.2689L979.376 20.589" stroke="#333533" stroke-width="3"/>
<path opacity="0.5" d="M960.089 87.6051C957.244 86.2416 957.519 82.9523 958.013 81.478L951.936 83.6974L933.462 74.8427C934.262 73.1734 937.384 72.4457 938.845 72.2907L944.742 75.1175L945.159 74.2481C948.085 74.1965 948.448 70.7993 948.263 69.1072L940.717 65.4905C938.219 64.2932 937.492 61.0934 937.44 59.6432L939.857 54.6006C943.217 51.5069 946.666 52.4115 947.97 53.2505L948.846 51.4247C950.253 45.15 951.11 44.9193 953.763 41.1656C957.791 38.9911 961.472 40.0993 962.702 40.3182C969.089 41.4554 971.642 47.7752 971.956 51.2753L960.579 75.0103L962.921 76.1328C964.584 74.6207 968.126 74.1012 969.688 74.0305L975.499 76.8158L974.624 78.6416L971.675 77.2282C969.948 76.8276 967.081 76.2662 969.437 77.2246C971.794 78.183 972.322 81.8144 972.291 83.5103L968.415 91.596L960.089 87.6051ZM960.089 87.6051C962.934 88.9687 966.825 90.8338 968.415 91.596L960.089 87.6051ZM960.089 87.6051L968.415 91.596L960.089 87.6051ZM927.113 89.8684L940.123 96.1041L937.456 101.668L932.079 99.0909C930.056 98.1926 926.231 95.0906 927.113 89.8684ZM927.244 84.4779L942.249 91.6698L944.624 86.7142L929.619 79.5223L927.244 84.4779ZM962.76 79.5838C960.938 81.3832 959.015 85.5721 965.905 87.9332C967.978 84.7934 970.253 78.7274 962.76 79.5838ZM942.345 64.9876L956.309 71.6806C955.332 67.0427 952.606 57.3324 949.514 55.5939C948.236 54.6251 943.846 53.1768 941.505 55.3905L939.422 59.7375C939.096 60.9358 940.124 63.9234 942.345 64.9876ZM960.772 70.826L969.564 52.4813C969.737 48.8576 967.571 42.7706 961.868 42.057C960.057 41.8304 957.965 40.1863 953.887 43.5772L952.588 45.8415L951.637 48.272C950.602 50.8765 954.961 63.6787 958.603 69.7867L960.772 70.826Z" fill="#333533" stroke="#333533"/>
<path opacity="0.5" d="M1397.22 898C1403.89 902.696 1417.86 906.993 1420.4 886.613L1452.92 804.251C1450.7 802.841 1445.74 800.532 1443.65 802.575C1441.73 799.81 1437.68 794.73 1436.82 796.531L1392.84 888.286C1392.38 891.181 1389.17 895.942 1380.02 891.833L1313.9 852.874C1311.65 852.256 1308.76 848.956 1315.22 840.699L1355.12 763.256C1356.23 760.445 1361.01 756.461 1371.22 763.013C1377.07 766.743 1388.38 775.048 1386.77 778.426C1385.8 781.886 1382.63 788.212 1377.66 785.828C1375.46 785.582 1371.78 783.011 1374.65 774.697L1394.21 733.885C1398.1 729.402 1407.74 721.749 1415.24 727.001C1419.71 729.029 1428.69 733.448 1428.83 734.899C1430.75 737.897 1433.64 745.305 1429.82 750.951L1409.74 794.285C1409.58 798.246 1411.17 805.077 1418.83 800.714C1420.94 798.727 1424.04 793.455 1419.58 788.269L1397.38 776.589" stroke="#333533" stroke-width="3"/>
<path opacity="0.5" d="M1378.09 843.605C1375.24 842.241 1375.52 838.952 1376.01 837.478L1369.94 839.697L1351.46 830.843C1352.26 829.173 1355.38 828.446 1356.84 828.291L1362.74 831.117L1363.16 830.248C1366.09 830.196 1366.45 826.799 1366.26 825.107L1358.72 821.49C1356.22 820.293 1355.49 817.093 1355.44 815.643L1357.86 810.6C1361.22 807.507 1364.67 808.411 1365.97 809.25L1366.85 807.425C1368.25 801.15 1369.11 800.919 1371.76 797.166C1375.79 794.991 1379.47 796.099 1380.7 796.318C1387.09 797.455 1389.64 803.775 1389.96 807.275L1378.58 831.01L1380.92 832.133C1382.58 830.621 1386.13 830.101 1387.69 830.03L1393.5 832.816L1392.62 834.641L1389.68 833.228C1387.95 832.828 1385.08 832.266 1387.44 833.224C1389.79 834.183 1390.32 837.814 1390.29 839.51L1386.42 847.596L1378.09 843.605ZM1378.09 843.605C1380.93 844.969 1384.83 846.834 1386.42 847.596L1378.09 843.605ZM1378.09 843.605L1386.42 847.596L1378.09 843.605ZM1345.11 845.868L1358.12 852.104L1355.46 857.668L1350.08 855.091C1348.06 854.192 1344.23 851.091 1345.11 845.868ZM1345.24 840.478L1360.25 847.67L1362.62 842.714L1347.62 835.522L1345.24 840.478ZM1380.76 835.584C1378.94 837.383 1377.02 841.572 1383.9 843.933C1385.98 840.793 1388.25 834.727 1380.76 835.584ZM1360.34 820.987L1374.31 827.68C1373.33 823.043 1370.61 813.332 1367.51 811.594C1366.24 810.625 1361.85 809.177 1359.51 811.39L1357.42 815.737C1357.1 816.936 1358.12 819.923 1360.34 820.987ZM1378.77 826.826L1387.56 808.481C1387.74 804.857 1385.57 798.77 1379.87 798.057C1378.06 797.83 1375.97 796.186 1371.89 799.577L1370.59 801.841L1369.64 804.272C1368.6 806.876 1372.96 819.679 1376.6 825.787L1378.77 826.826Z" fill="#333533" stroke="#333533"/>
<path opacity="0.5" d="M370.965 524.252C378.534 521.214 389.743 511.831 374.028 498.608L322.636 426.496C320.245 427.591 315.606 430.497 316.182 433.364C312.818 433.468 306.351 434.102 307.392 435.807L360.432 522.64C362.61 524.601 364.858 529.885 356.43 535.325L287.761 569.59C286.017 571.143 281.676 571.771 278.264 561.858L235.011 486.237C233.26 483.771 232.52 477.591 243.571 472.597C249.888 469.713 263.01 464.745 264.963 467.942C267.342 470.634 270.923 476.737 266.216 479.612C264.813 481.322 260.653 483.009 255.242 476.074L231.651 437.452C230.005 431.752 228.834 419.496 237.317 416.069C241.453 413.422 250.047 408.294 251.339 408.967C254.901 408.986 262.688 410.594 265.347 416.87L290.774 457.296C294.01 459.586 300.606 461.97 301.111 453.176C300.592 450.324 297.86 444.848 291.079 445.771L269.197 458.041" stroke="#333533" stroke-width="3"/>
<path opacity="0.5" d="M314.921 510.695C312.229 512.339 309.619 510.318 308.651 509.102L307.205 515.408L289.722 526.087C288.757 524.507 289.846 521.492 290.511 520.182L296.092 516.773L295.59 515.95C297.139 513.468 294.486 511.314 292.966 510.548L285.825 514.91C283.461 516.354 280.381 515.223 279.136 514.477L276.222 509.705C275.455 505.202 278.091 502.801 279.505 502.164L278.449 500.436C273.951 495.84 274.224 494.995 272.519 490.727C272.887 486.164 275.82 483.679 276.673 482.767C281.104 478.027 287.795 479.325 290.902 480.967L304.622 503.429L306.838 502.075C306.475 499.857 307.966 496.603 308.757 495.254L314.257 491.895L315.312 493.622L312.521 495.327C311.245 496.559 309.214 498.658 311.3 497.203C313.387 495.747 316.721 497.281 318.127 498.23L322.801 505.882L314.921 510.695ZM314.921 510.695C317.613 509.05 321.296 506.801 322.801 505.882L314.921 510.695ZM314.921 510.695L322.801 505.882L314.921 510.695ZM298.872 539.591L311.184 532.07L314.401 537.336L309.312 540.444C307.457 541.652 302.773 543.173 298.872 539.591ZM294.421 536.548L308.621 527.874L305.756 523.184L291.556 531.858L294.421 536.548ZM309.646 504.088C310.163 506.596 312.631 510.489 318.361 505.995C316.856 502.546 313.005 497.336 309.646 504.088ZM286.289 513.271L299.504 505.199C295.082 503.494 285.452 500.497 282.31 502.144C280.802 502.689 277.198 505.584 277.781 508.752L280.294 512.866C281.122 513.791 284.188 514.555 286.289 513.271ZM301.216 500.99L290.612 483.63C287.666 481.513 281.38 480.017 277.678 484.412C276.502 485.809 273.984 486.669 274.609 491.936L275.802 494.257L277.323 496.379C278.945 498.664 292.057 501.975 299.164 502.243L301.216 500.99Z" fill="#333533" stroke="#333533"/>
<path opacity="0.5" d="M796.965 1194.25C804.534 1191.21 815.743 1181.83 800.028 1168.61L748.636 1096.5C746.245 1097.59 741.606 1100.5 742.182 1103.36C738.818 1103.47 732.351 1104.1 733.392 1105.81L786.432 1192.64C788.61 1194.6 790.858 1199.88 782.43 1205.32L713.761 1239.59C712.017 1241.14 707.676 1241.77 704.264 1231.86L661.011 1156.24C659.26 1153.77 658.52 1147.59 669.571 1142.6C675.888 1139.71 689.01 1134.75 690.963 1137.94C693.342 1140.63 696.923 1146.74 692.216 1149.61C690.813 1151.32 686.653 1153.01 681.242 1146.07L657.651 1107.45C656.005 1101.75 654.834 1089.5 663.317 1086.07C667.453 1083.42 676.047 1078.29 677.339 1078.97C680.901 1078.99 688.688 1080.59 691.347 1086.87L716.774 1127.3C720.01 1129.59 726.606 1131.97 727.111 1123.18C726.592 1120.32 723.86 1114.85 717.079 1115.77L695.197 1128.04" stroke="#333533" stroke-width="3"/>
<path opacity="0.5" d="M740.921 1180.69C738.229 1182.34 735.619 1180.32 734.651 1179.1L733.205 1185.41L715.722 1196.09C714.757 1194.51 715.846 1191.49 716.511 1190.18L722.092 1186.77L721.59 1185.95C723.139 1183.47 720.486 1181.31 718.966 1180.55L711.825 1184.91C709.461 1186.35 706.381 1185.22 705.136 1184.48L702.222 1179.7C701.455 1175.2 704.091 1172.8 705.505 1172.16L704.449 1170.44C699.951 1165.84 700.224 1165 698.519 1160.73C698.887 1156.16 701.82 1153.68 702.673 1152.77C707.104 1148.03 713.795 1149.33 716.902 1150.97L730.622 1173.43L732.838 1172.08C732.475 1169.86 733.966 1166.6 734.757 1165.25L740.257 1161.89L741.312 1163.62L738.521 1165.33C737.245 1166.56 735.214 1168.66 737.3 1167.2C739.387 1165.75 742.721 1167.28 744.127 1168.23L748.801 1175.88L740.921 1180.69ZM740.921 1180.69C743.613 1179.05 747.296 1176.8 748.801 1175.88L740.921 1180.69ZM740.921 1180.69L748.801 1175.88L740.921 1180.69ZM724.872 1209.59L737.184 1202.07L740.401 1207.34L735.312 1210.44C733.457 1211.65 728.773 1213.17 724.872 1209.59ZM720.421 1206.55L734.621 1197.87L731.756 1193.18L717.556 1201.86L720.421 1206.55ZM735.646 1174.09C736.163 1176.6 738.631 1180.49 744.361 1175.99C742.856 1172.55 739.005 1167.34 735.646 1174.09ZM712.289 1183.27L725.504 1175.2C721.082 1173.49 711.452 1170.5 708.31 1172.14C706.802 1172.69 703.198 1175.58 703.781 1178.75L706.294 1182.87C707.122 1183.79 710.188 1184.55 712.289 1183.27ZM727.216 1170.99L716.612 1153.63C713.666 1151.51 707.38 1150.02 703.678 1154.41C702.502 1155.81 699.984 1156.67 700.609 1161.94L701.802 1164.26L703.323 1166.38C704.945 1168.66 718.057 1171.97 725.164 1172.24L727.216 1170.99Z" fill="#333533" stroke="#333533"/>
<path opacity="0.5" d="M529.965 1449.25C537.534 1446.21 548.743 1436.83 533.028 1423.61L481.636 1351.5C479.245 1352.59 474.606 1355.5 475.182 1358.36C471.818 1358.47 465.351 1359.1 466.392 1360.81L519.432 1447.64C521.61 1449.6 523.858 1454.88 515.43 1460.32L446.761 1494.59C445.017 1496.14 440.676 1496.77 437.264 1486.86L394.011 1411.24C392.26 1408.77 391.52 1402.59 402.571 1397.6C408.888 1394.71 422.01 1389.75 423.963 1392.94C426.342 1395.63 429.923 1401.74 425.216 1404.61C423.813 1406.32 419.653 1408.01 414.242 1401.07L390.651 1362.45C389.005 1356.75 387.834 1344.5 396.317 1341.07C400.453 1338.42 409.047 1333.29 410.339 1333.97C413.901 1333.99 421.688 1335.59 424.347 1341.87L449.774 1382.3C453.01 1384.59 459.606 1386.97 460.111 1378.18C459.592 1375.32 456.86 1369.85 450.079 1370.77L428.197 1383.04" stroke="#333533" stroke-width="3"/>
<path opacity="0.5" d="M473.921 1435.69C471.229 1437.34 468.619 1435.32 467.651 1434.1L466.205 1440.41L448.722 1451.09C447.757 1449.51 448.846 1446.49 449.511 1445.18L455.092 1441.77L454.59 1440.95C456.139 1438.47 453.486 1436.31 451.966 1435.55L444.825 1439.91C442.461 1441.35 439.381 1440.22 438.136 1439.48L435.222 1434.7C434.455 1430.2 437.091 1427.8 438.505 1427.16L437.449 1425.44C432.951 1420.84 433.224 1420 431.519 1415.73C431.887 1411.16 434.82 1408.68 435.673 1407.77C440.104 1403.03 446.795 1404.33 449.902 1405.97L463.622 1428.43L465.838 1427.08C465.475 1424.86 466.966 1421.6 467.757 1420.25L473.257 1416.89L474.312 1418.62L471.521 1420.33C470.245 1421.56 468.214 1423.66 470.3 1422.2C472.387 1420.75 475.721 1422.28 477.127 1423.23L481.801 1430.88L473.921 1435.69ZM473.921 1435.69C476.613 1434.05 480.296 1431.8 481.801 1430.88L473.921 1435.69ZM473.921 1435.69L481.801 1430.88L473.921 1435.69ZM457.872 1464.59L470.184 1457.07L473.401 1462.34L468.312 1465.44C466.457 1466.65 461.773 1468.17 457.872 1464.59ZM453.421 1461.55L467.621 1452.87L464.756 1448.18L450.556 1456.86L453.421 1461.55ZM468.646 1429.09C469.163 1431.6 471.631 1435.49 477.361 1430.99C475.856 1427.55 472.005 1422.34 468.646 1429.09ZM445.289 1438.27L458.504 1430.2C454.082 1428.49 444.452 1425.5 441.31 1427.14C439.802 1427.69 436.198 1430.58 436.781 1433.75L439.294 1437.87C440.122 1438.79 443.188 1439.55 445.289 1438.27ZM460.216 1425.99L449.612 1408.63C446.666 1406.51 440.38 1405.02 436.678 1409.41C435.502 1410.81 432.984 1411.67 433.609 1416.94L434.802 1419.26L436.323 1421.38C437.945 1423.66 451.057 1426.97 458.164 1427.24L460.216 1425.99Z" fill="#333533" stroke="#333533"/>
<path opacity="0.5" d="M107.965 785.252C115.534 782.214 126.743 772.831 111.028 759.608L59.6356 687.496C57.2444 688.591 52.6058 691.497 53.1818 694.364C49.8181 694.468 43.3509 695.102 44.3922 696.807L97.4321 783.64C99.6095 785.601 101.858 790.885 93.43 796.325L24.7607 830.59C23.0165 832.143 18.6753 832.771 15.2642 822.858L-27.9894 747.237C-29.7404 744.771 -30.4799 738.591 -19.4297 733.597C-13.1124 730.713 0.0102554 725.745 1.96264 728.942C4.34142 731.634 7.92229 737.736 3.21554 740.611C1.81231 742.322 -2.34697 744.009 -7.75832 737.074L-31.3497 698.452C-32.9953 692.752 -34.166 680.495 -25.6831 677.069C-21.5476 674.421 -12.9535 669.294 -11.6608 669.967C-8.09949 669.986 -0.312186 671.593 2.34634 677.869L27.7741 718.296C31.0094 720.586 37.6061 722.97 38.1103 714.176C37.5917 711.323 34.8593 705.848 28.079 706.771L6.19666 719.041" stroke="#333533" stroke-width="3"/>
<path opacity="0.5" d="M51.9206 771.695C49.2284 773.339 46.6188 771.318 45.6504 770.102L44.205 776.408L26.7219 787.087C25.7569 785.507 26.8456 782.492 27.5106 781.182L33.0921 777.773L32.5895 776.95C34.1386 774.468 31.486 772.314 29.9661 771.548L22.8251 775.91C20.4611 777.354 17.3808 776.223 16.1362 775.477L13.2213 770.705C12.4546 766.202 15.0905 763.801 16.5043 763.164L15.4489 761.436C10.951 756.84 11.224 755.995 9.51857 751.727C9.88695 747.164 12.8199 744.679 13.6727 743.767C18.1033 739.027 24.7944 740.325 27.9013 741.967L41.6215 764.429L43.8377 763.075C43.4744 760.857 44.966 757.603 45.7572 756.254L51.2566 752.895L52.312 754.622L49.5212 756.327C48.2448 757.559 46.2136 759.658 48.3001 758.203C50.3866 756.747 53.7204 758.281 55.1264 759.23L59.8003 766.882L51.9206 771.695ZM51.9206 771.695C54.6128 770.05 58.2955 767.801 59.8003 766.882L51.9206 771.695ZM51.9206 771.695L59.8003 766.882L51.9206 771.695ZM35.872 800.591L48.1841 793.07L51.4005 798.336L46.3115 801.444C44.4571 802.652 39.7731 804.173 35.872 800.591ZM31.4208 797.548L45.6208 788.874L42.7562 784.184L28.5562 792.858L31.4208 797.548ZM46.6453 765.088C47.163 767.596 49.6309 771.489 55.361 766.995C53.8556 763.546 50.0047 758.336 46.6453 765.088ZM23.289 774.271L36.504 766.199C32.0815 764.494 22.4513 761.497 19.3102 763.144C17.802 763.689 14.1977 766.584 14.7808 769.752L17.2936 773.866C18.1218 774.791 21.1878 775.555 23.289 774.271ZM38.2159 761.99L27.6116 744.63C24.6655 742.513 18.3802 741.017 14.6778 745.412C13.5019 746.809 10.9842 747.669 11.6092 752.936L12.802 755.257L14.3231 757.379C15.9447 759.664 29.0572 762.975 36.1638 763.243L38.2159 761.99Z" fill="#333533" stroke="#333533"/>
<path opacity="0.5" d="M1251.96 475.252C1259.53 472.214 1270.74 462.831 1255.03 449.608L1203.64 377.496C1201.24 378.591 1196.61 381.497 1197.18 384.364C1193.82 384.468 1187.35 385.102 1188.39 386.807L1241.43 473.64C1243.61 475.601 1245.86 480.885 1237.43 486.325L1168.76 520.59C1167.02 522.143 1162.68 522.771 1159.26 512.858L1116.01 437.237C1114.26 434.771 1113.52 428.591 1124.57 423.597C1130.89 420.713 1144.01 415.745 1145.96 418.942C1148.34 421.634 1151.92 427.737 1147.22 430.612C1145.81 432.322 1141.65 434.009 1136.24 427.074L1112.65 388.452C1111 382.752 1109.83 370.496 1118.32 367.069C1122.45 364.422 1131.05 359.294 1132.34 359.967C1135.9 359.986 1143.69 361.594 1146.35 367.87L1171.77 408.296C1175.01 410.586 1181.61 412.97 1182.11 404.176C1181.59 401.324 1178.86 395.848 1172.08 396.771L1150.2 409.041" stroke="#333533" stroke-width="3"/>
<path opacity="0.5" d="M1195.92 461.695C1193.23 463.339 1190.62 461.318 1189.65 460.102L1188.21 466.408L1170.72 477.087C1169.76 475.507 1170.85 472.492 1171.51 471.182L1177.09 467.773L1176.59 466.95C1178.14 464.468 1175.49 462.314 1173.97 461.548L1166.83 465.91C1164.46 467.354 1161.38 466.223 1160.14 465.477L1157.22 460.705C1156.45 456.202 1159.09 453.801 1160.5 453.164L1159.45 451.436C1154.95 446.84 1155.22 445.995 1153.52 441.727C1153.89 437.164 1156.82 434.679 1157.67 433.767C1162.1 429.027 1168.79 430.325 1171.9 431.967L1185.62 454.429L1187.84 453.075C1187.47 450.857 1188.97 447.603 1189.76 446.254L1195.26 442.895L1196.31 444.622L1193.52 446.327C1192.25 447.559 1190.21 449.658 1192.3 448.203C1194.39 446.747 1197.72 448.281 1199.13 449.23L1203.8 456.882L1195.92 461.695ZM1195.92 461.695C1198.61 460.05 1202.3 457.801 1203.8 456.882L1195.92 461.695ZM1195.92 461.695L1203.8 456.882L1195.92 461.695ZM1179.87 490.591L1192.18 483.07L1195.4 488.336L1190.31 491.444C1188.46 492.652 1183.77 494.173 1179.87 490.591ZM1175.42 487.548L1189.62 478.874L1186.76 474.184L1172.56 482.858L1175.42 487.548ZM1190.65 455.088C1191.16 457.596 1193.63 461.489 1199.36 456.995C1197.86 453.546 1194 448.336 1190.65 455.088ZM1167.29 464.271L1180.5 456.199C1176.08 454.494 1166.45 451.497 1163.31 453.144C1161.8 453.689 1158.2 456.584 1158.78 459.752L1161.29 463.866C1162.12 464.791 1165.19 465.555 1167.29 464.271ZM1182.22 451.99L1171.61 434.63C1168.67 432.513 1162.38 431.017 1158.68 435.412C1157.5 436.809 1154.98 437.669 1155.61 442.936L1156.8 445.257L1158.32 447.379C1159.94 449.664 1173.06 452.975 1180.16 453.243L1182.22 451.99Z" fill="#333533" stroke="#333533"/>
<path opacity="0.5" d="M1044.96 872.252C1052.53 869.214 1063.74 859.831 1048.03 846.608L996.636 774.496C994.245 775.591 989.606 778.497 990.182 781.364C986.818 781.468 980.351 782.102 981.392 783.807L1034.43 870.64C1036.61 872.601 1038.86 877.885 1030.43 883.325L961.761 917.59C960.017 919.143 955.676 919.771 952.264 909.858L909.011 834.237C907.26 831.771 906.52 825.591 917.571 820.597C923.888 817.713 937.01 812.745 938.963 815.942C941.342 818.634 944.923 824.736 940.216 827.611C938.813 829.322 934.653 831.009 929.242 824.074L905.651 785.452C904.005 779.752 902.834 767.495 911.317 764.069C915.453 761.421 924.047 756.294 925.339 756.967C928.901 756.986 936.688 758.593 939.347 764.869L964.774 805.296C968.01 807.586 974.606 809.97 975.111 801.176C974.592 798.323 971.86 792.848 965.079 793.771L943.197 806.041" stroke="#333533" stroke-width="3"/>
<path opacity="0.5" d="M988.921 858.695C986.229 860.339 983.619 858.318 982.651 857.102L981.205 863.408L963.722 874.087C962.757 872.507 963.846 869.492 964.511 868.182L970.092 864.773L969.59 863.95C971.139 861.468 968.486 859.314 966.966 858.548L959.825 862.91C957.461 864.354 954.381 863.223 953.136 862.477L950.222 857.705C949.455 853.202 952.091 850.801 953.505 850.164L952.449 848.436C947.951 843.84 948.224 842.995 946.519 838.727C946.887 834.164 949.82 831.679 950.673 830.767C955.104 826.027 961.795 827.325 964.902 828.967L978.622 851.429L980.838 850.075C980.475 847.857 981.966 844.603 982.757 843.254L988.257 839.895L989.312 841.622L986.521 843.327C985.245 844.559 983.214 846.658 985.3 845.203C987.387 843.747 990.721 845.281 992.127 846.23L996.801 853.882L988.921 858.695ZM988.921 858.695C991.613 857.05 995.296 854.801 996.801 853.882L988.921 858.695ZM988.921 858.695L996.801 853.882L988.921 858.695ZM972.872 887.591L985.184 880.07L988.401 885.336L983.312 888.444C981.457 889.652 976.773 891.173 972.872 887.591ZM968.421 884.548L982.621 875.874L979.756 871.184L965.556 879.858L968.421 884.548ZM983.646 852.088C984.163 854.596 986.631 858.489 992.361 853.995C990.856 850.546 987.005 845.336 983.646 852.088ZM960.289 861.271L973.504 853.199C969.082 851.494 959.452 848.497 956.31 850.144C954.802 850.689 951.198 853.584 951.781 856.752L954.294 860.866C955.122 861.791 958.188 862.555 960.289 861.271ZM975.216 848.99L964.612 831.63C961.666 829.513 955.38 828.017 951.678 832.412C950.502 833.809 947.984 834.669 948.609 839.936L949.802 842.257L951.323 844.379C952.945 846.664 966.057 849.975 973.164 850.243L975.216 848.99Z" fill="#333533" stroke="#333533"/>
<path opacity="0.5" d="M593.965 174.253C601.534 171.214 612.743 161.831 597.028 148.608L545.636 76.4961C543.245 77.591 538.606 80.4975 539.182 83.3642C535.818 83.4682 529.351 84.1025 530.392 85.8072L583.432 172.64C585.61 174.602 587.858 179.885 579.43 185.325L510.761 219.59C509.017 221.143 504.676 221.771 501.264 211.858L458.011 136.237C456.26 133.772 455.52 127.591 466.571 122.597C472.888 119.714 486.01 114.746 487.963 117.942C490.342 120.634 493.923 126.737 489.216 129.612C487.813 131.322 483.653 133.01 478.242 126.074L454.651 87.4523C453.005 81.7523 451.834 69.4958 460.317 66.0697C464.453 63.4217 473.047 58.2941 474.339 58.9675C477.901 58.9866 485.688 60.5937 488.347 66.8698L513.774 107.296C517.01 109.587 523.606 111.97 524.111 103.177C523.592 100.324 520.86 94.8486 514.079 95.7717L492.197 108.041" stroke="#333533" stroke-width="3"/>
<path opacity="0.5" d="M537.921 160.695C535.229 162.34 532.619 160.319 531.651 159.102L530.205 165.408L512.722 176.087C511.757 174.508 512.846 171.493 513.511 170.183L519.092 166.773L518.59 165.95C520.139 163.468 517.486 161.315 515.966 160.548L508.825 164.91C506.461 166.354 503.381 165.223 502.136 164.477L499.222 159.705C498.455 155.202 501.091 152.802 502.505 152.164L501.449 150.436C496.951 145.84 497.224 144.995 495.519 140.727C495.887 136.164 498.82 133.679 499.673 132.767C504.104 128.027 510.795 129.325 513.902 130.967L527.622 153.429L529.838 152.075C529.475 149.857 530.966 146.603 531.757 145.254L537.257 141.895L538.312 143.623L535.521 145.327C534.245 146.559 532.214 148.658 534.3 147.203C536.387 145.748 539.721 147.281 541.127 148.23L545.801 155.882L537.921 160.695ZM537.921 160.695C540.613 159.051 544.296 156.801 545.801 155.882L537.921 160.695ZM537.921 160.695L545.801 155.882L537.921 160.695ZM521.872 189.591L534.184 182.07L537.401 187.336L532.312 190.445C530.457 191.653 525.773 193.173 521.872 189.591ZM517.421 186.548L531.621 177.874L528.756 173.184L514.556 181.858L517.421 186.548ZM532.646 154.089C533.163 156.597 535.631 160.489 541.361 155.995C539.856 152.546 536.005 147.337 532.646 154.089ZM509.289 163.271L522.504 155.199C518.082 153.495 508.452 150.497 505.31 152.145C503.802 152.689 500.198 155.584 500.781 158.752L503.294 162.866C504.122 163.792 507.188 164.555 509.289 163.271ZM524.216 150.99L513.612 133.63C510.666 131.513 504.38 130.017 500.678 134.413C499.502 135.809 496.984 136.669 497.609 141.936L498.802 144.258L500.323 146.379C501.945 148.665 515.057 151.975 522.164 152.244L524.216 150.99Z" fill="#333533" stroke="#333533"/>
<path opacity="0.5" d="M1463.96 147.253C1471.53 144.214 1482.74 134.831 1467.03 121.608L1415.64 49.4961C1413.24 50.591 1408.61 53.4975 1409.18 56.3642C1405.82 56.4682 1399.35 57.1025 1400.39 58.8072L1453.43 145.64C1455.61 147.602 1457.86 152.885 1449.43 158.325L1380.76 192.59C1379.02 194.143 1374.68 194.771 1371.26 184.858L1328.01 109.237C1326.26 106.772 1325.52 100.591 1336.57 95.597C1342.89 92.7135 1356.01 87.7457 1357.96 90.942C1360.34 93.634 1363.92 99.7368 1359.22 102.612C1357.81 104.322 1353.65 106.01 1348.24 99.0742L1324.65 60.4523C1323 54.7523 1321.83 42.4958 1330.32 39.0697C1334.45 36.4217 1343.05 31.2941 1344.34 31.9675C1347.9 31.9866 1355.69 33.5937 1358.35 39.8698L1383.77 80.2959C1387.01 82.5867 1393.61 84.9699 1394.11 76.1767C1393.59 73.3237 1390.86 67.8486 1384.08 68.7717L1362.2 81.0409" stroke="#333533" stroke-width="3"/>
<path opacity="0.5" d="M1407.92 133.695C1405.23 135.34 1402.62 133.319 1401.65 132.102L1400.21 138.408L1382.72 149.087C1381.76 147.508 1382.85 144.493 1383.51 143.183L1389.09 139.773L1388.59 138.95C1390.14 136.468 1387.49 134.315 1385.97 133.548L1378.83 137.91C1376.46 139.354 1373.38 138.223 1372.14 137.477L1369.22 132.705C1368.45 128.202 1371.09 125.802 1372.5 125.164L1371.45 123.436C1366.95 118.84 1367.22 117.995 1365.52 113.727C1365.89 109.164 1368.82 106.679 1369.67 105.767C1374.1 101.027 1380.79 102.325 1383.9 103.967L1397.62 126.429L1399.84 125.075C1399.47 122.857 1400.97 119.603 1401.76 118.254L1407.26 114.895L1408.31 116.623L1405.52 118.327C1404.25 119.559 1402.21 121.658 1404.3 120.203C1406.39 118.748 1409.72 120.281 1411.13 121.23L1415.8 128.882L1407.92 133.695ZM1407.92 133.695C1410.61 132.051 1414.3 129.801 1415.8 128.882L1407.92 133.695ZM1407.92 133.695L1415.8 128.882L1407.92 133.695ZM1391.87 162.591L1404.18 155.07L1407.4 160.336L1402.31 163.445C1400.46 164.653 1395.77 166.173 1391.87 162.591ZM1387.42 159.548L1401.62 150.874L1398.76 146.184L1384.56 154.858L1387.42 159.548ZM1402.65 127.089C1403.16 129.597 1405.63 133.489 1411.36 128.995C1409.86 125.546 1406 120.337 1402.65 127.089ZM1379.29 136.271L1392.5 128.199C1388.08 126.495 1378.45 123.497 1375.31 125.145C1373.8 125.689 1370.2 128.584 1370.78 131.752L1373.29 135.866C1374.12 136.792 1377.19 137.555 1379.29 136.271ZM1394.22 123.99L1383.61 106.63C1380.67 104.513 1374.38 103.017 1370.68 107.413C1369.5 108.809 1366.98 109.669 1367.61 114.936L1368.8 117.258L1370.32 119.379C1371.94 121.665 1385.06 124.975 1392.16 125.244L1394.22 123.99Z" fill="#333533" stroke="#333533"/>
</g>
<defs>
<clipPath id="clip0">
<rect width="1425" height="1555" fill="white"/>
</clipPath>
</defs>
</svg>
