<svg width="327" height="168" viewBox="0 0 327 168" fill="none" xmlns="http://www.w3.org/2000/svg">
<path d="M101.376 164.127C109.419 165.48 123.876 163.316 117.358 143.84L111.091 55.5101C108.479 55.198 103.006 55.2604 102.003 58.0071C99.0782 56.3425 93.2286 53.5126 93.2286 55.5101V157.261C94.0642 160.07 93.2286 165.75 83.2007 166L6.7378 159.446C4.43974 159.862 0.40768 158.135 2.66396 147.897L5.17091 60.8162C4.96199 57.7991 7.55254 52.1394 19.586 53.6375C26.4802 54.4698 40.2686 57.0708 40.2686 60.8162C40.8954 64.3535 40.77 71.4282 35.2547 71.4282C33.1655 72.1565 28.7365 71.4282 27.7337 62.6889V17.4318C29.3006 11.7096 34.6906 0.639833 43.7157 2.138C48.6252 2.03396 58.6322 2.138 59.3843 3.38647C62.4136 5.25918 68.2214 10.69 67.2186 17.4318L67.8454 65.1858C69.4122 68.8272 73.7995 74.2997 78.8134 67.0586C79.858 64.3535 80.3803 58.2567 74.1128 55.5101L49.043 54.5738" stroke="#FCA311" stroke-width="3"/>
<g clip-path="url(#clip0)">
<path d="M31.8574 139.637H46.2847V145.808H40.3214C38.1093 145.872 33.3194 144.728 31.8574 139.637Z" fill="#FCA311"/>
<path d="M29.6453 134.72H46.2847V129.224H29.6453V134.72Z" fill="#FCA311"/>
<path fill-rule="evenodd" clip-rule="evenodd" d="M31.0881 123.344H51.5748L56.0954 118.716C56.2877 120.258 57.4611 123.344 60.6159 123.344H69.8494V114.377C69.1441 112.835 67.0986 109.788 64.5594 109.942C62.0201 110.096 64.8479 109.364 66.5792 108.978H69.8494V106.953H63.4052C62.0266 107.693 59.0577 109.692 58.2114 111.774H55.6144V85.4536C53.8191 82.4327 48.7855 77.837 42.5337 79.5724C41.3305 79.9064 37.5323 80.498 34.8392 84.2002C34.0697 88.7316 33.3964 89.3101 34.8392 95.5769V97.6015C33.3003 97.4087 29.7992 98.0836 28.1064 102.326V107.918C28.7797 109.203 30.8188 111.774 33.5888 111.774H41.9566C42.8543 113.22 43.9957 116.44 41.3795 117.752V118.716H34.8392C33.5888 119.487 31.0881 121.493 31.0881 123.344ZM59.5579 114.956C58.6923 117.366 58.7692 121.974 66.0021 121.126C66.5151 117.398 65.9444 110.945 59.5579 114.956ZM50.3244 110.617H34.8392C32.3769 110.617 30.1583 108.368 29.9339 107.146V102.326C31.0881 99.3176 35.6727 98.7263 37.2437 99.0477C40.7832 99.2791 47.439 106.857 50.3244 110.617ZM53.9794 87.5746V107.918H51.5748C45.65 103.984 36.1857 94.3235 35.9934 91.5275L35.801 88.9244L35.9934 86.3213C38.2055 81.5007 40.8025 82.0792 42.5337 81.5007C47.9846 79.6793 52.5687 84.2323 53.9794 87.5746Z" fill="#FCA311"/>
<path d="M60.6159 123.344C57.4611 123.344 56.2877 120.258 56.0954 118.716L51.5748 123.344H31.0881C31.0881 121.493 33.5888 119.487 34.8392 118.716H41.3795V117.752C43.9957 116.44 42.8543 113.22 41.9566 111.774H33.5888C30.8188 111.774 28.7797 109.203 28.1064 107.918V102.326C29.7992 98.0836 33.3003 97.4087 34.8392 97.6015V95.5769C33.3964 89.3101 34.0697 88.7316 34.8392 84.2002C37.5323 80.498 41.3305 79.9064 42.5337 79.5724C48.7855 77.837 53.8191 82.4327 55.6144 85.4536V111.774H58.2114C59.0577 109.692 62.0266 107.693 63.4052 106.953H69.8494V108.978H66.5792C64.8479 109.364 62.0202 110.096 64.5594 109.942C67.0986 109.788 69.1441 112.835 69.8494 114.377V123.344H60.6159ZM60.6159 123.344C63.7707 123.344 68.086 123.344 69.8494 123.344H60.6159ZM60.6159 123.344H69.8494H60.6159ZM31.8575 139.637H46.2848V145.808H40.3215C38.1094 145.872 33.3195 144.728 31.8575 139.637ZM29.6454 134.72H46.2848V129.225H29.6454V134.72ZM59.5579 114.956C58.6923 117.366 58.7692 121.974 66.0021 121.126C66.5151 117.398 65.9444 110.945 59.5579 114.956ZM34.8392 110.617H50.3244C47.439 106.857 40.7832 99.2791 37.2437 99.0477C35.6727 98.7263 31.0881 99.3176 29.9339 102.326V107.146C30.1583 108.368 32.3769 110.617 34.8392 110.617ZM53.9794 107.918V87.5746C52.5687 84.2323 47.9846 79.6793 42.5337 81.5007C40.8025 82.0792 38.2055 81.5007 35.9934 86.3213L35.801 88.9244L35.9934 91.5275C36.1857 94.3235 45.65 103.984 51.5748 107.918H53.9794Z" stroke="#FCA311"/>
</g>
<path d="M183.77 86.8C187.903 87.7333 191.17 89.8 193.57 93C196.037 96.1333 197.27 99.7333 197.27 103.8C197.27 109.8 195.203 114.5 191.07 117.9C186.937 121.3 181.137 123 173.67 123H138.77V52.5H172.57C179.77 52.5 185.403 54.1 189.47 57.3C193.603 60.5 195.67 65 195.67 70.8C195.67 74.9333 194.57 78.4 192.37 81.2C190.237 83.9333 187.37 85.8 183.77 86.8ZM158.37 80.5H168.27C173.203 80.5 175.67 78.4667 175.67 74.4C175.67 70.2 173.203 68.1 168.27 68.1H158.37V80.5ZM169.77 107.2C174.703 107.2 177.17 105.133 177.17 101C177.17 98.8667 176.503 97.2333 175.17 96.1C173.903 94.9667 172.07 94.4 169.67 94.4H158.37V107.2H169.77ZM225.46 68.2V79.7H247.96V94.6H225.46V107.3H250.96V123H205.86V52.5H250.96V68.2H225.46ZM280.245 68.2V79.7H302.745V94.6H280.245V107.3H305.745V123H260.645V52.5H305.745V68.2H280.245Z" fill="#FCA311"/>
<path d="M146.74 140.8C147.553 140.973 148.207 141.38 148.7 142.02C149.193 142.647 149.44 143.367 149.44 144.18C149.44 145.353 149.027 146.287 148.2 146.98C147.387 147.66 146.247 148 144.78 148H138.24V133.96H144.56C145.987 133.96 147.1 134.287 147.9 134.94C148.713 135.593 149.12 136.48 149.12 137.6C149.12 138.427 148.9 139.113 148.46 139.66C148.033 140.207 147.46 140.587 146.74 140.8ZM141.66 139.64H143.9C144.46 139.64 144.887 139.52 145.18 139.28C145.487 139.027 145.64 138.66 145.64 138.18C145.64 137.7 145.487 137.333 145.18 137.08C144.887 136.827 144.46 136.7 143.9 136.7H141.66V139.64ZM144.18 145.24C144.753 145.24 145.193 145.113 145.5 144.86C145.82 144.593 145.98 144.213 145.98 143.72C145.98 143.227 145.813 142.84 145.48 142.56C145.16 142.28 144.713 142.14 144.14 142.14H141.66V145.24H144.18ZM161.244 137.08V148H159.844V146.08C159.524 146.76 159.03 147.28 158.364 147.64C157.697 148 156.95 148.18 156.124 148.18C154.817 148.18 153.75 147.78 152.924 146.98C152.097 146.167 151.684 144.993 151.684 143.46V137.08H153.064V143.3C153.064 144.487 153.357 145.393 153.944 146.02C154.544 146.647 155.357 146.96 156.384 146.96C157.437 146.96 158.277 146.627 158.904 145.96C159.53 145.293 159.844 144.313 159.844 143.02V137.08H161.244ZM168.2 148.16C166.947 148.16 165.92 147.873 165.12 147.3C164.333 146.713 163.893 145.92 163.8 144.92H165.24C165.307 145.533 165.593 146.033 166.1 146.42C166.62 146.793 167.313 146.98 168.18 146.98C168.94 146.98 169.533 146.8 169.96 146.44C170.4 146.08 170.62 145.633 170.62 145.1C170.62 144.727 170.5 144.42 170.26 144.18C170.02 143.94 169.713 143.753 169.34 143.62C168.98 143.473 168.487 143.32 167.86 143.16C167.047 142.947 166.387 142.733 165.88 142.52C165.373 142.307 164.94 141.993 164.58 141.58C164.233 141.153 164.06 140.587 164.06 139.88C164.06 139.347 164.22 138.853 164.54 138.4C164.86 137.947 165.313 137.587 165.9 137.32C166.487 137.053 167.153 136.92 167.9 136.92C169.073 136.92 170.02 137.22 170.74 137.82C171.46 138.407 171.847 139.22 171.9 140.26H170.5C170.46 139.62 170.207 139.107 169.74 138.72C169.287 138.32 168.66 138.12 167.86 138.12C167.153 138.12 166.58 138.287 166.14 138.62C165.7 138.953 165.48 139.367 165.48 139.86C165.48 140.287 165.607 140.64 165.86 140.92C166.127 141.187 166.453 141.4 166.84 141.56C167.227 141.707 167.747 141.873 168.4 142.06C169.187 142.273 169.813 142.48 170.28 142.68C170.747 142.88 171.147 143.173 171.48 143.56C171.813 143.947 171.987 144.46 172 145.1C172 145.687 171.84 146.213 171.52 146.68C171.2 147.133 170.753 147.493 170.18 147.76C169.607 148.027 168.947 148.16 168.2 148.16ZM175.335 135.02C175.055 135.02 174.815 134.92 174.615 134.72C174.415 134.52 174.315 134.273 174.315 133.98C174.315 133.687 174.415 133.447 174.615 133.26C174.815 133.06 175.055 132.96 175.335 132.96C175.615 132.96 175.855 133.06 176.055 133.26C176.255 133.447 176.355 133.687 176.355 133.98C176.355 134.273 176.255 134.52 176.055 134.72C175.855 134.92 175.615 135.02 175.335 135.02ZM176.035 137.08V148H174.635V137.08H176.035ZM184.325 136.88C185.632 136.88 186.699 137.287 187.525 138.1C188.352 138.9 188.765 140.067 188.765 141.6V148H187.385V141.76C187.385 140.573 187.085 139.667 186.485 139.04C185.899 138.413 185.092 138.1 184.065 138.1C183.012 138.1 182.172 138.433 181.545 139.1C180.919 139.767 180.605 140.747 180.605 142.04V148H179.205V137.08H180.605V138.94C180.952 138.273 181.452 137.767 182.105 137.42C182.759 137.06 183.499 136.88 184.325 136.88ZM201.742 141.98C201.742 142.46 201.728 142.827 201.702 143.08H192.642C192.682 143.907 192.882 144.613 193.242 145.2C193.602 145.787 194.075 146.233 194.662 146.54C195.248 146.833 195.888 146.98 196.582 146.98C197.488 146.98 198.248 146.76 198.862 146.32C199.488 145.88 199.902 145.287 200.102 144.54H201.582C201.315 145.607 200.742 146.48 199.862 147.16C198.995 147.827 197.902 148.16 196.582 148.16C195.555 148.16 194.635 147.933 193.822 147.48C193.008 147.013 192.368 146.36 191.902 145.52C191.448 144.667 191.222 143.673 191.222 142.54C191.222 141.407 191.448 140.413 191.902 139.56C192.355 138.707 192.988 138.053 193.802 137.6C194.615 137.147 195.542 136.92 196.582 136.92C197.622 136.92 198.528 137.147 199.302 137.6C200.088 138.053 200.688 138.667 201.102 139.44C201.528 140.2 201.742 141.047 201.742 141.98ZM200.322 141.94C200.335 141.127 200.168 140.433 199.822 139.86C199.488 139.287 199.028 138.853 198.442 138.56C197.855 138.267 197.215 138.12 196.522 138.12C195.482 138.12 194.595 138.453 193.862 139.12C193.128 139.787 192.722 140.727 192.642 141.94H200.322ZM208.063 148.16C206.81 148.16 205.783 147.873 204.983 147.3C204.196 146.713 203.756 145.92 203.663 144.92H205.103C205.17 145.533 205.456 146.033 205.963 146.42C206.483 146.793 207.176 146.98 208.043 146.98C208.803 146.98 209.396 146.8 209.823 146.44C210.263 146.08 210.483 145.633 210.483 145.1C210.483 144.727 210.363 144.42 210.123 144.18C209.883 143.94 209.576 143.753 209.203 143.62C208.843 143.473 208.35 143.32 207.723 143.16C206.91 142.947 206.25 142.733 205.743 142.52C205.236 142.307 204.803 141.993 204.443 141.58C204.096 141.153 203.923 140.587 203.923 139.88C203.923 139.347 204.083 138.853 204.403 138.4C204.723 137.947 205.176 137.587 205.763 137.32C206.35 137.053 207.016 136.92 207.763 136.92C208.936 136.92 209.883 137.22 210.603 137.82C211.323 138.407 211.71 139.22 211.763 140.26H210.363C210.323 139.62 210.07 139.107 209.603 138.72C209.15 138.32 208.523 138.12 207.723 138.12C207.016 138.12 206.443 138.287 206.003 138.62C205.563 138.953 205.343 139.367 205.343 139.86C205.343 140.287 205.47 140.64 205.723 140.92C205.99 141.187 206.316 141.4 206.703 141.56C207.09 141.707 207.61 141.873 208.263 142.06C209.05 142.273 209.676 142.48 210.143 142.68C210.61 142.88 211.01 143.173 211.343 143.56C211.676 143.947 211.85 144.46 211.863 145.1C211.863 145.687 211.703 146.213 211.383 146.68C211.063 147.133 210.616 147.493 210.043 147.76C209.47 148.027 208.81 148.16 208.063 148.16ZM218.258 148.16C217.005 148.16 215.978 147.873 215.178 147.3C214.392 146.713 213.952 145.92 213.858 144.92H215.298C215.365 145.533 215.652 146.033 216.158 146.42C216.678 146.793 217.372 146.98 218.238 146.98C218.998 146.98 219.592 146.8 220.018 146.44C220.458 146.08 220.678 145.633 220.678 145.1C220.678 144.727 220.558 144.42 220.318 144.18C220.078 143.94 219.772 143.753 219.398 143.62C219.038 143.473 218.545 143.32 217.918 143.16C217.105 142.947 216.445 142.733 215.938 142.52C215.432 142.307 214.998 141.993 214.638 141.58C214.292 141.153 214.118 140.587 214.118 139.88C214.118 139.347 214.278 138.853 214.598 138.4C214.918 137.947 215.372 137.587 215.958 137.32C216.545 137.053 217.212 136.92 217.958 136.92C219.132 136.92 220.078 137.22 220.798 137.82C221.518 138.407 221.905 139.22 221.958 140.26H220.558C220.518 139.62 220.265 139.107 219.798 138.72C219.345 138.32 218.718 138.12 217.918 138.12C217.212 138.12 216.638 138.287 216.198 138.62C215.758 138.953 215.538 139.367 215.538 139.86C215.538 140.287 215.665 140.64 215.918 140.92C216.185 141.187 216.512 141.4 216.898 141.56C217.285 141.707 217.805 141.873 218.458 142.06C219.245 142.273 219.872 142.48 220.338 142.68C220.805 142.88 221.205 143.173 221.538 143.56C221.872 143.947 222.045 144.46 222.058 145.1C222.058 145.687 221.898 146.213 221.578 146.68C221.258 147.133 220.812 147.493 220.238 147.76C219.665 148.027 219.005 148.16 218.258 148.16ZM233.242 136.7V139.54H237.822V142.18H233.242V145.26H238.422V148H229.822V133.96H238.422V136.7H233.242ZM246.122 136.88C247.429 136.88 248.496 137.287 249.322 138.1C250.149 138.9 250.562 140.067 250.562 141.6V148H249.182V141.76C249.182 140.573 248.882 139.667 248.282 139.04C247.696 138.413 246.889 138.1 245.862 138.1C244.809 138.1 243.969 138.433 243.342 139.1C242.716 139.767 242.402 140.747 242.402 142.04V148H241.002V137.08H242.402V138.94C242.749 138.273 243.249 137.767 243.902 137.42C244.556 137.06 245.296 136.88 246.122 136.88ZM255.479 138.26V145.04C255.479 145.707 255.605 146.167 255.859 146.42C256.112 146.673 256.559 146.8 257.199 146.8H258.479V148H256.979C255.992 148 255.259 147.773 254.779 147.32C254.299 146.853 254.059 146.093 254.059 145.04V138.26H252.539V137.08H254.059V134.34H255.479V137.08H258.479V138.26H255.479ZM270.668 141.98C270.668 142.46 270.654 142.827 270.628 143.08H261.568C261.608 143.907 261.808 144.613 262.168 145.2C262.528 145.787 263.001 146.233 263.588 146.54C264.174 146.833 264.814 146.98 265.508 146.98C266.414 146.98 267.174 146.76 267.788 146.32C268.414 145.88 268.828 145.287 269.028 144.54H270.508C270.241 145.607 269.668 146.48 268.788 147.16C267.921 147.827 266.828 148.16 265.508 148.16C264.481 148.16 263.561 147.933 262.748 147.48C261.934 147.013 261.294 146.36 260.828 145.52C260.374 144.667 260.148 143.673 260.148 142.54C260.148 141.407 260.374 140.413 260.828 139.56C261.281 138.707 261.914 138.053 262.728 137.6C263.541 137.147 264.468 136.92 265.508 136.92C266.548 136.92 267.454 137.147 268.228 137.6C269.014 138.053 269.614 138.667 270.028 139.44C270.454 140.2 270.668 141.047 270.668 141.98ZM269.248 141.94C269.261 141.127 269.094 140.433 268.748 139.86C268.414 139.287 267.954 138.853 267.368 138.56C266.781 138.267 266.141 138.12 265.448 138.12C264.408 138.12 263.521 138.453 262.788 139.12C262.054 139.787 261.648 140.727 261.568 141.94H269.248ZM274.629 139.02C274.936 138.34 275.402 137.813 276.029 137.44C276.669 137.067 277.449 136.88 278.369 136.88V138.34H277.989C276.976 138.34 276.162 138.613 275.549 139.16C274.936 139.707 274.629 140.62 274.629 141.9V148H273.229V137.08H274.629V139.02ZM281.855 139.48C282.202 138.747 282.748 138.14 283.495 137.66C284.255 137.167 285.155 136.92 286.195 136.92C287.182 136.92 288.068 137.153 288.855 137.62C289.655 138.073 290.275 138.727 290.715 139.58C291.168 140.42 291.395 141.4 291.395 142.52C291.395 143.64 291.168 144.627 290.715 145.48C290.275 146.333 289.655 146.993 288.855 147.46C288.068 147.927 287.182 148.16 286.195 148.16C285.168 148.16 284.275 147.92 283.515 147.44C282.755 146.947 282.202 146.333 281.855 145.6V153.16H280.475V137.08H281.855V139.48ZM289.975 142.52C289.975 141.613 289.795 140.833 289.435 140.18C289.088 139.513 288.608 139.007 287.995 138.66C287.382 138.313 286.688 138.14 285.915 138.14C285.168 138.14 284.482 138.32 283.855 138.68C283.242 139.04 282.755 139.553 282.395 140.22C282.035 140.887 281.855 141.66 281.855 142.54C281.855 143.42 282.035 144.193 282.395 144.86C282.755 145.527 283.242 146.04 283.855 146.4C284.482 146.76 285.168 146.94 285.915 146.94C286.688 146.94 287.382 146.767 287.995 146.42C288.608 146.06 289.088 145.547 289.435 144.88C289.795 144.2 289.975 143.413 289.975 142.52ZM295.371 139.02C295.678 138.34 296.144 137.813 296.771 137.44C297.411 137.067 298.191 136.88 299.111 136.88V138.34H298.731C297.718 138.34 296.904 138.613 296.291 139.16C295.678 139.707 295.371 140.62 295.371 141.9V148H293.971V137.08H295.371V139.02ZM301.917 135.02C301.637 135.02 301.397 134.92 301.197 134.72C300.997 134.52 300.897 134.273 300.897 133.98C300.897 133.687 300.997 133.447 301.197 133.26C301.397 133.06 301.637 132.96 301.917 132.96C302.197 132.96 302.437 133.06 302.637 133.26C302.837 133.447 302.937 133.687 302.937 133.98C302.937 134.273 302.837 134.52 302.637 134.72C302.437 134.92 302.197 135.02 301.917 135.02ZM302.617 137.08V148H301.217V137.08H302.617ZM309.548 148.16C308.294 148.16 307.268 147.873 306.468 147.3C305.681 146.713 305.241 145.92 305.148 144.92H306.588C306.654 145.533 306.941 146.033 307.448 146.42C307.968 146.793 308.661 146.98 309.528 146.98C310.288 146.98 310.881 146.8 311.308 146.44C311.748 146.08 311.968 145.633 311.968 145.1C311.968 144.727 311.848 144.42 311.608 144.18C311.368 143.94 311.061 143.753 310.688 143.62C310.328 143.473 309.834 143.32 309.208 143.16C308.394 142.947 307.734 142.733 307.228 142.52C306.721 142.307 306.288 141.993 305.928 141.58C305.581 141.153 305.408 140.587 305.408 139.88C305.408 139.347 305.568 138.853 305.888 138.4C306.208 137.947 306.661 137.587 307.248 137.32C307.834 137.053 308.501 136.92 309.248 136.92C310.421 136.92 311.368 137.22 312.088 137.82C312.808 138.407 313.194 139.22 313.248 140.26H311.848C311.808 139.62 311.554 139.107 311.088 138.72C310.634 138.32 310.008 138.12 309.208 138.12C308.501 138.12 307.928 138.287 307.488 138.62C307.048 138.953 306.827 139.367 306.827 139.86C306.827 140.287 306.954 140.64 307.208 140.92C307.474 141.187 307.801 141.4 308.188 141.56C308.574 141.707 309.094 141.873 309.748 142.06C310.534 142.273 311.161 142.48 311.628 142.68C312.094 142.88 312.494 143.173 312.828 143.56C313.161 143.947 313.334 144.46 313.348 145.1C313.348 145.687 313.188 146.213 312.868 146.68C312.548 147.133 312.101 147.493 311.528 147.76C310.954 148.027 310.294 148.16 309.548 148.16ZM325.863 141.98C325.863 142.46 325.849 142.827 325.823 143.08H316.763C316.803 143.907 317.003 144.613 317.363 145.2C317.723 145.787 318.196 146.233 318.783 146.54C319.369 146.833 320.009 146.98 320.703 146.98C321.609 146.98 322.369 146.76 322.983 146.32C323.609 145.88 324.023 145.287 324.223 144.54H325.703C325.436 145.607 324.863 146.48 323.983 147.16C323.116 147.827 322.023 148.16 320.703 148.16C319.676 148.16 318.756 147.933 317.943 147.48C317.129 147.013 316.489 146.36 316.023 145.52C315.569 144.667 315.343 143.673 315.343 142.54C315.343 141.407 315.569 140.413 316.023 139.56C316.476 138.707 317.109 138.053 317.923 137.6C318.736 137.147 319.663 136.92 320.703 136.92C321.743 136.92 322.649 137.147 323.423 137.6C324.209 138.053 324.809 138.667 325.223 139.44C325.649 140.2 325.863 141.047 325.863 141.98ZM324.443 141.94C324.456 141.127 324.289 140.433 323.943 139.86C323.609 139.287 323.149 138.853 322.563 138.56C321.976 138.267 321.336 138.12 320.643 138.12C319.603 138.12 318.716 138.453 317.983 139.12C317.249 139.787 316.843 140.727 316.763 141.94H324.443ZM141.66 154.7V157.54H146.24V160.18H141.66V163.26H146.84V166H138.24V151.96H146.84V154.7H141.66ZM156.2 158V159.18H148.42V158H156.2ZM159.151 160.54C159.151 159.407 159.378 158.42 159.831 157.58C160.285 156.727 160.911 156.073 161.711 155.62C162.511 155.153 163.425 154.92 164.451 154.92C165.798 154.92 166.905 155.253 167.771 155.92C168.651 156.587 169.218 157.493 169.471 158.64H167.971C167.785 157.853 167.378 157.24 166.751 156.8C166.138 156.347 165.371 156.12 164.451 156.12C163.718 156.12 163.058 156.287 162.471 156.62C161.885 156.953 161.418 157.453 161.071 158.12C160.738 158.773 160.571 159.58 160.571 160.54C160.571 161.5 160.738 162.313 161.071 162.98C161.418 163.647 161.885 164.147 162.471 164.48C163.058 164.813 163.718 164.98 164.451 164.98C165.371 164.98 166.138 164.76 166.751 164.32C167.378 163.867 167.785 163.24 167.971 162.44H169.471C169.218 163.56 168.651 164.46 167.771 165.14C166.891 165.82 165.785 166.16 164.451 166.16C163.425 166.16 162.511 165.933 161.711 165.48C160.911 165.013 160.285 164.36 159.831 163.52C159.378 162.667 159.151 161.673 159.151 160.54ZM176.837 166.16C175.81 166.16 174.884 165.933 174.057 165.48C173.244 165.013 172.597 164.36 172.117 163.52C171.65 162.667 171.417 161.673 171.417 160.54C171.417 159.407 171.657 158.42 172.137 157.58C172.617 156.727 173.27 156.073 174.097 155.62C174.924 155.153 175.85 154.92 176.877 154.92C177.904 154.92 178.83 155.153 179.657 155.62C180.497 156.073 181.15 156.727 181.617 157.58C182.097 158.42 182.337 159.407 182.337 160.54C182.337 161.66 182.097 162.647 181.617 163.5C181.137 164.353 180.477 165.013 179.637 165.48C178.797 165.933 177.864 166.16 176.837 166.16ZM176.837 164.94C177.557 164.94 178.224 164.78 178.837 164.46C179.45 164.127 179.944 163.633 180.317 162.98C180.704 162.313 180.897 161.5 180.897 160.54C180.897 159.58 180.71 158.773 180.337 158.12C179.964 157.453 179.47 156.96 178.857 156.64C178.244 156.307 177.577 156.14 176.857 156.14C176.137 156.14 175.47 156.307 174.857 156.64C174.244 156.96 173.75 157.453 173.377 158.12C173.017 158.773 172.837 159.58 172.837 160.54C172.837 161.5 173.017 162.313 173.377 162.98C173.75 163.633 174.237 164.127 174.837 164.46C175.45 164.78 176.117 164.94 176.837 164.94ZM197.889 154.88C199.169 154.88 200.209 155.287 201.009 156.1C201.822 156.9 202.229 158.067 202.229 159.6V166H200.849V159.76C200.849 158.573 200.562 157.667 199.989 157.04C199.416 156.413 198.636 156.1 197.649 156.1C196.622 156.1 195.802 156.44 195.189 157.12C194.576 157.8 194.269 158.787 194.269 160.08V166H192.889V159.76C192.889 158.573 192.602 157.667 192.029 157.04C191.456 156.413 190.669 156.1 189.669 156.1C188.642 156.1 187.822 156.44 187.209 157.12C186.596 157.8 186.289 158.787 186.289 160.08V166H184.889V155.08H186.289V156.96C186.636 156.28 187.129 155.767 187.769 155.42C188.409 155.06 189.122 154.88 189.909 154.88C190.856 154.88 191.682 155.107 192.389 155.56C193.109 156.013 193.629 156.68 193.949 157.56C194.242 156.693 194.742 156.033 195.449 155.58C196.169 155.113 196.982 154.88 197.889 154.88ZM218.338 154.88C219.618 154.88 220.658 155.287 221.458 156.1C222.272 156.9 222.678 158.067 222.678 159.6V166H221.298V159.76C221.298 158.573 221.012 157.667 220.438 157.04C219.865 156.413 219.085 156.1 218.098 156.1C217.072 156.1 216.252 156.44 215.638 157.12C215.025 157.8 214.718 158.787 214.718 160.08V166H213.338V159.76C213.338 158.573 213.052 157.667 212.478 157.04C211.905 156.413 211.118 156.1 210.118 156.1C209.092 156.1 208.272 156.44 207.658 157.12C207.045 157.8 206.738 158.787 206.738 160.08V166H205.338V155.08H206.738V156.96C207.085 156.28 207.578 155.767 208.218 155.42C208.858 155.06 209.572 154.88 210.358 154.88C211.305 154.88 212.132 155.107 212.838 155.56C213.558 156.013 214.078 156.68 214.398 157.56C214.692 156.693 215.192 156.033 215.898 155.58C216.618 155.113 217.432 154.88 218.338 154.88ZM235.668 159.98C235.668 160.46 235.654 160.827 235.628 161.08H226.568C226.608 161.907 226.808 162.613 227.168 163.2C227.528 163.787 228.001 164.233 228.588 164.54C229.174 164.833 229.814 164.98 230.508 164.98C231.414 164.98 232.174 164.76 232.788 164.32C233.414 163.88 233.828 163.287 234.028 162.54H235.508C235.241 163.607 234.668 164.48 233.788 165.16C232.921 165.827 231.828 166.16 230.508 166.16C229.481 166.16 228.561 165.933 227.748 165.48C226.934 165.013 226.294 164.36 225.828 163.52C225.374 162.667 225.148 161.673 225.148 160.54C225.148 159.407 225.374 158.413 225.828 157.56C226.281 156.707 226.914 156.053 227.728 155.6C228.541 155.147 229.468 154.92 230.508 154.92C231.548 154.92 232.454 155.147 233.228 155.6C234.014 156.053 234.614 156.667 235.028 157.44C235.454 158.2 235.668 159.047 235.668 159.98ZM234.248 159.94C234.261 159.127 234.094 158.433 233.748 157.86C233.414 157.287 232.954 156.853 232.368 156.56C231.781 156.267 231.141 156.12 230.448 156.12C229.408 156.12 228.521 156.453 227.788 157.12C227.054 157.787 226.648 158.727 226.568 159.94H234.248ZM239.629 157.02C239.936 156.34 240.402 155.813 241.029 155.44C241.669 155.067 242.449 154.88 243.369 154.88V156.34H242.989C241.976 156.34 241.162 156.613 240.549 157.16C239.936 157.707 239.629 158.62 239.629 159.9V166H238.229V155.08H239.629V157.02ZM244.835 160.54C244.835 159.407 245.062 158.42 245.515 157.58C245.968 156.727 246.595 156.073 247.395 155.62C248.195 155.153 249.108 154.92 250.135 154.92C251.482 154.92 252.588 155.253 253.455 155.92C254.335 156.587 254.902 157.493 255.155 158.64H253.655C253.468 157.853 253.062 157.24 252.435 156.8C251.822 156.347 251.055 156.12 250.135 156.12C249.402 156.12 248.742 156.287 248.155 156.62C247.568 156.953 247.102 157.453 246.755 158.12C246.422 158.773 246.255 159.58 246.255 160.54C246.255 161.5 246.422 162.313 246.755 162.98C247.102 163.647 247.568 164.147 248.155 164.48C248.742 164.813 249.402 164.98 250.135 164.98C251.055 164.98 251.822 164.76 252.435 164.32C253.062 163.867 253.468 163.24 253.655 162.44H255.155C254.902 163.56 254.335 164.46 253.455 165.14C252.575 165.82 251.468 166.16 250.135 166.16C249.108 166.16 248.195 165.933 247.395 165.48C246.595 165.013 245.968 164.36 245.515 163.52C245.062 162.667 244.835 161.673 244.835 160.54ZM267.621 159.98C267.621 160.46 267.607 160.827 267.581 161.08H258.521C258.561 161.907 258.761 162.613 259.121 163.2C259.481 163.787 259.954 164.233 260.541 164.54C261.127 164.833 261.767 164.98 262.461 164.98C263.367 164.98 264.127 164.76 264.741 164.32C265.367 163.88 265.781 163.287 265.981 162.54H267.461C267.194 163.607 266.621 164.48 265.741 165.16C264.874 165.827 263.781 166.16 262.461 166.16C261.434 166.16 260.514 165.933 259.701 165.48C258.887 165.013 258.247 164.36 257.781 163.52C257.327 162.667 257.101 161.673 257.101 160.54C257.101 159.407 257.327 158.413 257.781 157.56C258.234 156.707 258.867 156.053 259.681 155.6C260.494 155.147 261.421 154.92 262.461 154.92C263.501 154.92 264.407 155.147 265.181 155.6C265.967 156.053 266.567 156.667 266.981 157.44C267.407 158.2 267.621 159.047 267.621 159.98ZM266.201 159.94C266.214 159.127 266.047 158.433 265.701 157.86C265.367 157.287 264.907 156.853 264.321 156.56C263.734 156.267 263.094 156.12 262.401 156.12C261.361 156.12 260.474 156.453 259.741 157.12C259.007 157.787 258.601 158.727 258.521 159.94H266.201Z" fill="#E5E5E5"/>
<defs>
<clipPath id="clip0">
<rect width="42.6186" height="67.4175" fill="white" transform="translate(27.6965 78.781)"/>
</clipPath>
</defs>
</svg>
